<?xml version="1.0" standalone="no"?>
<!DOCTYPE svg PUBLIC "-//W3C//DTD SVG 20010904//EN"
 "http://www.w3.org/TR/2001/REC-SVG-20010904/DTD/svg10.dtd">
<svg version="1.0" xmlns="http://www.w3.org/2000/svg"
 width="2700.000000pt" height="1452.000000pt" viewBox="0 0 2700.000000 1452.000000"
 preserveAspectRatio="xMidYMid meet">
<metadata>
Created by potrace 1.16, written by Peter Selinger 2001-2019
</metadata>
<g transform="translate(0.000000,1452.000000) scale(0.100000,-0.100000)"
fill="#000000" stroke="none">
<path d="M0 7260 l0 -7260 13500 0 13500 0 0 7260 0 7260 -13500 0 -13500 0 0
-7260z m7068 2311 c81 -5 148 -13 155 -20 8 -8 3 -11 -18 -12 -21 -1 -24 -3
-10 -6 11 -3 23 -8 27 -12 12 -11 18 -101 7 -101 -5 0 -9 9 -9 19 0 15 -10 20
-51 26 -27 4 -52 5 -54 3 -3 -2 0 -31 5 -64 14 -87 12 -134 -11 -261 -16 -87
-25 -113 -35 -109 -10 4 -14 -3 -14 -24 0 -31 -15 -48 -23 -28 -3 7 -6 2 -6
-11 -2 -44 -34 -132 -47 -127 -7 3 -15 -7 -19 -22 -20 -86 -37 -132 -49 -132
-8 0 -16 -9 -19 -21 -3 -12 -10 -18 -15 -15 -5 3 -18 -18 -29 -47 -11 -28 -24
-51 -29 -51 -5 1 -18 -22 -30 -50 -12 -28 -26 -50 -32 -49 -6 1 -18 -18 -28
-42 -9 -25 -22 -45 -28 -45 -11 0 -36 -45 -36 -66 0 -7 -7 -14 -17 -16 -9 -2
-22 -19 -28 -38 -8 -24 -18 -35 -31 -35 -14 0 -21 -10 -28 -41 -6 -29 -16 -45
-31 -52 -12 -6 -28 -25 -34 -42 l-11 -32 31 6 c17 3 43 6 58 7 14 0 20 3 14 6
-26 10 -12 21 49 38 35 10 73 27 84 39 44 43 76 66 95 66 11 0 23 10 29 24 5
15 20 27 40 31 18 4 41 21 57 42 15 19 40 49 55 65 15 17 28 34 28 38 0 4 13
13 30 20 16 7 32 20 35 30 3 10 16 29 29 43 12 13 33 50 45 81 13 31 29 56 35
56 7 0 20 25 30 56 13 41 20 53 27 43 7 -11 9 -9 9 7 0 31 26 90 32 73 3 -8
10 23 17 69 15 105 16 353 1 450 -7 41 -10 75 -7 78 12 12 66 -10 72 -30 13
-44 17 -344 6 -460 -13 -129 -29 -184 -32 -106 l-1 45 -9 -55 c-13 -85 -35
-155 -47 -153 -6 2 -17 -15 -23 -37 -7 -21 -17 -38 -23 -37 -6 1 -17 -20 -25
-46 -12 -39 -19 -47 -33 -43 -15 3 -20 -3 -25 -26 -3 -17 -14 -33 -26 -37 -11
-4 -30 -31 -43 -62 -18 -43 -23 -49 -25 -29 -1 21 -3 19 -11 -11 -8 -30 -17
-39 -63 -59 -32 -14 -51 -28 -48 -36 6 -16 -12 -26 -57 -34 -31 -5 -36 -9 -40
-40 -4 -31 -10 -36 -50 -48 -72 -22 -78 -25 -52 -29 31 -6 28 -23 -5 -24 -38
-1 -174 -36 -146 -38 50 -2 28 -20 -39 -31 -94 -15 -127 -28 -78 -30 58 -2 5
-18 -65 -20 -33 -1 -69 -5 -80 -9 -19 -8 -19 -9 5 -16 21 -7 12 -11 -50 -21
-111 -18 -110 -18 -110 16 0 27 3 30 29 30 23 0 30 5 33 22 2 15 14 24 42 32
34 10 41 17 59 64 20 53 44 73 33 27 -11 -45 3 -26 17 23 10 35 19 48 35 50
16 2 22 10 22 28 0 20 4 25 22 22 18 -2 24 3 28 26 3 17 13 32 24 36 12 4 26
25 35 56 9 27 20 47 25 46 5 -2 18 12 28 32 11 22 23 33 32 30 9 -3 15 5 19
25 5 22 12 31 26 31 15 0 22 11 31 49 7 31 18 51 28 53 11 3 24 27 35 61 18
55 36 75 38 40 1 -21 12 8 29 75 6 25 17 42 25 42 9 0 15 10 15 25 0 18 5 25
19 25 15 0 21 12 31 63 13 69 29 107 31 72 2 -51 30 69 36 153 3 51 8 90 11
88 2 -3 7 -29 11 -58 7 -49 8 -45 14 57 16 257 18 232 -12 239 -14 3 -44 9
-66 14 l-40 10 38 1 c20 0 37 6 37 11 0 12 -139 12 -185 0 -26 -7 -22 -8 25
-10 64 -2 61 -4 -42 -21 -71 -12 -77 -15 -80 -38 -2 -21 -10 -27 -43 -33 -38
-8 -42 -12 -53 -53 -10 -38 -16 -45 -36 -45 -19 0 -25 -6 -28 -27 -2 -19 -10
-29 -27 -33 -18 -4 -27 -15 -33 -38 -6 -23 -14 -32 -26 -30 -11 2 -18 -5 -20
-19 -2 -13 -10 -23 -18 -23 -9 0 -24 -22 -36 -50 -11 -27 -25 -48 -31 -47 -6
1 -20 -15 -32 -36 -12 -21 -26 -37 -31 -35 -5 2 -10 -9 -12 -24 -4 -34 -22
-37 -23 -5 -1 20 -2 20 -6 2 -9 -44 -37 -96 -49 -91 -8 3 -20 -21 -36 -70 -19
-61 -25 -72 -34 -59 -10 13 -13 12 -18 -12 -11 -49 -28 -83 -37 -77 -5 3 -13
-6 -19 -20 -5 -14 -16 -26 -24 -26 -9 0 -20 -19 -28 -47 -10 -36 -19 -48 -33
-48 -14 0 -22 -13 -33 -62 -10 -41 -19 -60 -27 -57 -8 4 -17 -13 -26 -47 -9
-34 -20 -54 -31 -57 -11 -2 -18 -14 -18 -28 0 -30 -20 -32 -21 -1 0 21 -1 21
-11 -3 -6 -14 -16 -47 -22 -75 -7 -27 -17 -49 -23 -48 -7 2 -19 -21 -29 -50
-22 -70 -27 -76 -34 -47 -4 19 -11 7 -29 -55 -14 -49 -26 -74 -30 -66 -9 15
-21 -8 -21 -40 0 -27 -20 -24 -21 4 0 12 -11 -16 -24 -62 -24 -82 -42 -122
-33 -68 11 57 -10 24 -28 -45 -13 -50 -24 -73 -34 -73 -9 0 -16 -11 -18 -27
-2 -19 -9 -28 -21 -28 -17 0 -41 -54 -41 -94 0 -12 -7 -16 -22 -14 -18 3 -24
-5 -39 -57 -14 -47 -18 -54 -18 -30 -2 27 -3 28 -13 10 -6 -10 -14 -33 -17
-49 -5 -23 -14 -32 -46 -42 -22 -6 -32 -12 -22 -13 25 -1 21 -29 -4 -33 -35
-5 -52 -77 -37 -153 6 -33 17 -73 24 -90 12 -27 13 -28 14 -7 0 13 4 20 10 17
6 -3 10 -15 10 -26 0 -12 7 -19 20 -19 11 0 20 -6 20 -14 0 -21 21 -34 81 -50
46 -12 49 -15 22 -15 -55 -1 -37 -17 35 -30 83 -15 113 -30 62 -32 l-35 -1 35
-13 c19 -7 45 -14 58 -14 14 -1 26 -10 32 -26 7 -18 17 -25 35 -25 18 0 25 -5
25 -19 0 -13 12 -22 44 -31 33 -9 46 -18 48 -33 2 -14 14 -24 35 -29 22 -6 33
-15 35 -30 2 -14 13 -25 28 -29 l25 -7 -25 -2 c-22 -2 -21 -3 10 -12 19 -6 53
-19 75 -29 l40 -18 -30 -1 -30 -1 40 -19 c22 -10 50 -19 63 -19 18 -1 22 -5
17 -20 -5 -17 1 -22 37 -31 65 -17 68 -18 62 -34 -4 -10 5 -16 28 -22 32 -7
32 -8 8 -14 -22 -6 -17 -9 35 -25 71 -21 71 -21 56 -39 -10 -12 -7 -16 21 -20
18 -3 74 -11 123 -19 l90 -15 -60 -1 c-97 -3 -31 -23 100 -30 103 -6 110 -7
113 -28 3 -18 -2 -22 -30 -25 -22 -2 -32 -8 -30 -17 4 -21 -15 -29 -86 -37
-64 -7 -69 -24 -8 -24 54 0 15 -15 -97 -37 -62 -11 -97 -21 -79 -22 17 -1 32
-5 32 -10 0 -4 -48 -12 -107 -18 -93 -8 -99 -10 -45 -11 34 -1 62 -6 62 -12 0
-12 -376 -12 -405 0 -16 7 -10 9 25 10 104 5 102 18 -2 19 -60 0 -108 5 -108
10 0 5 6 11 13 14 6 2 -23 12 -65 21 -71 16 -112 36 -73 36 32 0 4 18 -39 24
-44 7 -96 35 -66 36 25 1 -10 20 -37 20 -15 0 -20 5 -19 18 2 10 -5 19 -18 22
-12 3 -29 21 -38 40 l-17 35 -1 -30 c0 -28 -2 -27 -25 20 -13 28 -25 57 -25
65 0 13 -1 13 -10 0 -12 -20 -19 -11 -33 46 -7 27 -17 49 -24 49 -6 0 -15 3
-19 8 -4 4 -15 7 -23 7 -11 0 -21 18 -32 53 -8 28 -20 51 -27 50 -15 -4 -28
23 -37 75 -8 47 -25 57 -25 15 l-1 -28 -13 31 c-8 17 -17 50 -21 72 -4 23 -11
42 -16 42 -4 0 -6 -6 -3 -14 3 -8 1 -17 -4 -20 -6 -3 -16 16 -23 44 -9 33 -18
49 -27 48 -14 -3 -24 9 -38 47 -6 18 -8 17 -14 -10 -6 -23 -8 -25 -9 -8 0 12
-5 25 -11 28 -5 3 -10 15 -10 26 0 12 -10 23 -26 29 -35 14 -122 11 -164 -5
-34 -13 -34 -14 -7 -14 46 -2 30 -19 -25 -26 -29 -4 -75 -13 -103 -20 l-50
-14 55 -1 c62 -2 65 -1 -95 -36 -46 -11 -70 -20 -57 -22 47 -8 18 -20 -65 -27
-87 -8 -89 -20 -3 -25 57 -3 25 -8 -146 -24 -199 -20 -336 -20 -524 -1 -80 8
-148 15 -152 15 -5 0 -8 5 -8 10 0 6 15 10 33 11 23 1 16 4 -28 13 -47 9 -59
15 -57 28 3 17 -10 21 -101 34 -41 6 -48 9 -44 25 8 29 -21 39 -78 28 -95 -19
-97 -19 -91 -34 3 -9 -4 -17 -17 -21 -12 -3 -33 -16 -47 -29 -14 -12 -42 -25
-63 -28 -22 -3 -46 -14 -55 -25 -13 -14 -33 -19 -82 -21 -35 -1 -73 -8 -85
-14 -19 -10 -19 -11 10 -23 l30 -13 -30 -1 c-16 0 -47 -3 -67 -6 -36 -6 -38
-9 -44 -53 -6 -46 -7 -47 -43 -48 -20 -1 -53 -4 -74 -7 l-38 -5 6 32 c4 18 11
39 16 47 7 13 8 12 9 -2 0 -10 5 -18 10 -18 6 0 10 11 10 25 0 18 5 25 20 25
11 0 21 6 22 13 5 46 17 65 36 60 11 -2 21 5 27 19 7 16 17 22 33 20 12 -2 22
2 22 7 0 6 -4 11 -10 11 -5 0 -1 13 8 30 9 16 23 30 30 30 7 0 11 4 7 9 -3 5
1 16 9 23 8 8 16 23 18 34 2 13 10 18 26 16 13 -2 22 2 23 10 2 42 10 83 18
88 5 3 13 18 17 34 4 19 3 27 -4 22 -6 -3 -4 15 4 49 8 31 12 60 9 65 -3 5 4
7 15 5 11 -2 18 0 15 5 -3 5 -1 11 4 15 6 3 8 12 4 20 -3 9 1 15 8 15 11 0 11
3 -1 10 -13 9 -13 12 3 21 18 10 18 12 1 30 -17 19 -17 20 1 13 12 -5 16 -4
11 4 -3 6 -2 13 4 17 5 3 10 11 10 16 0 6 -6 7 -12 3 -10 -6 -10 -5 -1 7 6 8
12 19 12 24 1 6 7 10 14 10 6 0 13 12 15 27 2 20 13 32 38 44 19 9 34 19 34
23 0 7 99 85 109 87 9 1 44 15 67 26 26 12 129 4 148 -11 8 -7 23 -13 34 -16
24 -4 32 17 32 86 0 49 22 84 34 54 9 -24 70 -45 128 -44 73 2 114 12 110 29
-4 19 17 30 61 30 30 0 37 4 37 19 0 21 9 25 75 37 33 6 36 9 17 13 -41 10
-28 26 30 37 76 15 89 21 82 37 -3 9 9 18 36 27 22 7 40 17 40 21 0 5 17 16
38 25 20 9 31 18 25 21 -22 8 -14 23 12 23 27 0 31 -13 16 -54 -7 -18 -19 -25
-43 -28 -23 -2 -34 -9 -38 -24 -5 -19 -29 -49 -92 -114 -15 -15 -30 -38 -33
-52 -4 -15 -18 -28 -37 -36 -23 -8 -29 -16 -26 -30 4 -16 -3 -21 -43 -31 -27
-7 -46 -17 -43 -23 3 -5 3 -24 0 -42 -6 -31 -10 -34 -56 -40 -44 -6 -50 -10
-50 -30 l0 -24 198 -7 c108 -4 249 -10 312 -14 l115 -8 -120 -3 c-66 -1 -151
-6 -190 -10 -56 -5 -35 -7 100 -9 222 -2 408 -27 310 -41 l-40 -6 58 -8 c56
-8 78 -25 35 -27 -16 -1 -11 -4 15 -11 21 -6 53 -7 71 -4 29 6 35 12 43 44 5
21 15 37 23 37 25 1 37 13 44 46 5 25 9 29 19 20 11 -8 18 1 35 42 12 29 23
59 23 67 1 8 5 2 9 -15 7 -30 7 -30 15 13 8 43 21 55 27 25 2 -10 10 4 19 32
12 36 22 50 35 50 11 0 20 8 22 20 11 63 24 96 37 92 9 -4 18 11 28 46 9 30
16 42 16 29 2 -41 18 -14 31 50 17 88 22 99 29 63 6 -28 8 -25 25 33 11 41 22
62 30 59 12 -5 21 18 46 111 7 29 16 42 25 39 8 -4 15 6 20 26 l8 32 6 -29 c6
-27 8 -24 31 40 22 63 25 67 30 39 5 -27 7 -24 19 28 7 33 22 68 33 79 12 12
29 42 39 67 10 25 18 40 19 34 1 -27 19 -11 26 22 4 24 11 34 21 33 10 -2 21
17 36 62 17 55 21 61 27 40 7 -28 14 -20 25 29 4 20 14 35 25 38 11 3 22 18
25 34 4 16 13 29 21 29 8 0 17 8 21 18 10 29 34 51 49 45 9 -3 14 2 14 13 0
39 21 94 36 94 8 0 19 12 24 26 6 14 18 28 28 31 10 2 22 14 27 26 6 12 20 23
32 25 13 2 24 13 27 27 4 15 11 22 20 19 9 -3 18 6 24 26 6 16 18 32 27 35 44
14 50 17 38 22 -23 8 -14 21 25 33 53 18 62 30 21 31 -32 1 -32 1 -9 9 14 4
47 14 73 21 38 11 47 17 43 31 -3 14 2 18 27 19 32 0 32 0 7 10 -25 10 -24 11
15 24 22 7 60 19 85 26 45 12 45 13 15 19 -25 5 -14 9 63 25 51 11 89 21 83
23 -6 2 -11 10 -11 18 0 10 14 14 51 14 46 0 50 2 44 20 -3 11 -5 21 -3 22 2
1 217 11 338 16 19 0 99 -3 178 -7z m5292 -21 c0 -23 -5 -30 -19 -30 -12 0
-21 -9 -25 -25 -5 -18 -13 -25 -31 -25 -17 0 -25 -6 -25 -17 0 -34 -35 -133
-45 -129 -6 2 -19 -25 -29 -60 -11 -39 -24 -64 -32 -64 -8 0 -14 -4 -14 -10 0
-5 -6 -10 -14 -10 -9 0 -23 -28 -37 -72 -18 -61 -23 -69 -28 -48 -6 20 -10 13
-29 -46 -12 -38 -23 -78 -23 -89 -1 -11 -5 -4 -8 15 -7 35 -7 35 -15 -17 -6
-42 -12 -53 -27 -53 -18 0 -29 -26 -45 -112 -3 -21 -11 -38 -16 -38 -6 0 -8 9
-5 20 3 11 2 20 -3 20 -4 0 -10 -10 -13 -22 -3 -13 -13 -48 -21 -78 l-14 -55
-2 50 -2 50 -8 -46 c-4 -26 -12 -55 -18 -65 -5 -11 -13 -39 -17 -63 -7 -41 -9
-43 -21 -26 -12 17 -14 17 -14 2 0 -10 -8 -17 -19 -17 -15 0 -22 -13 -32 -57
-11 -45 -18 -57 -31 -55 -17 3 -21 -8 -43 -100 -4 -16 -12 -25 -20 -22 -9 4
-18 -17 -30 -65 -16 -67 -34 -93 -36 -53 -1 11 -4 8 -8 -8 -5 -15 -14 -24 -23
-22 -13 2 -18 -9 -23 -50 -10 -83 -4 -123 20 -123 14 0 19 -6 18 -21 -2 -20 5
-23 98 -34 114 -14 287 -7 397 16 14 3 22 12 23 27 1 22 1 22 8 -2 6 -22 7
-22 18 10 6 19 17 54 23 77 8 29 16 42 25 39 8 -4 15 6 20 26 l8 32 6 -30 c7
-30 7 -30 19 15 6 25 16 64 22 88 9 34 14 41 24 32 14 -11 17 -3 33 88 6 38
23 43 23 7 0 -14 4 -25 9 -25 5 0 12 34 16 75 4 41 11 76 16 76 5 1 15 2 22 3
6 0 13 15 15 32 l3 32 -103 -3 c-57 -1 -115 -6 -130 -10 -28 -7 -29 -9 -32
-82 -1 -22 -25 -42 -48 -43 -13 0 -19 -12 -24 -50 -7 -55 -24 -68 -24 -18 0
31 -13 32 -15 0 -1 -9 -2 -30 -3 -45 -2 -20 -7 -27 -19 -25 -19 3 -30 -27 -32
-84 -1 -35 -3 -37 -38 -43 -66 -11 -69 -13 -20 -14 26 0 47 -5 47 -11 0 -8
-39 -12 -107 -10 -8 0 -6 49 3 113 6 39 23 42 25 4 1 -25 2 -23 24 56 13 48
19 57 34 52 16 -5 19 3 25 66 7 67 9 71 39 84 17 7 36 11 43 8 14 -5 26 156
13 171 -5 6 -18 5 -33 -2 -30 -13 -96 -4 -96 14 0 15 50 27 88 20 15 -3 59 1
97 8 39 8 60 14 48 15 -20 1 -23 6 -23 46 l0 45 40 0 c33 0 40 3 40 20 0 18 7
20 65 20 l65 0 0 -40 c0 -31 -4 -40 -17 -40 -10 0 -35 -11 -56 -24 l-37 -23
52 -12 c29 -7 91 -11 138 -9 l84 3 -3 49 c-2 32 2 52 10 57 10 6 10 10 0 23
-10 12 -7 15 21 18 27 2 34 8 36 30 3 25 0 27 -45 33 -76 10 -82 14 -23 13 30
0 73 1 96 1 l41 1 23 78 c20 66 24 73 29 49 5 -25 8 -21 25 37 14 50 22 64 31
56 9 -7 15 4 24 46 9 39 16 52 21 43 7 -11 10 -11 14 1 2 8 12 38 21 67 11 35
21 50 30 47 14 -6 35 70 35 126 0 48 20 46 22 -2 1 -40 1 -41 5 -8 7 58 0 55
178 59 115 3 86 19 -40 22 -72 2 -57 4 80 11 94 4 195 12 225 17 54 9 54 9
-33 10 -149 2 -87 18 95 24 95 4 194 10 221 13 46 6 47 6 47 -20 0 -14 -4 -26
-10 -26 -5 0 -10 7 -10 15 0 30 -18 14 -25 -22 -8 -43 -18 -53 -56 -53 -23 0
-28 -6 -38 -47 -26 -106 -32 -123 -41 -118 -9 6 -25 -37 -34 -95 -6 -34 -4
-37 30 -49 22 -8 34 -18 30 -26 -2 -7 1 -20 7 -28 19 -23 76 -3 88 32 11 31
113 121 137 121 8 0 34 -11 57 -25 23 -13 45 -21 49 -18 3 3 6 0 6 -7 0 -7 3
-10 6 -7 4 3 16 1 28 -6 11 -6 26 -12 31 -13 22 -2 45 -17 39 -25 -3 -5 1 -6
8 -4 21 8 93 -10 91 -23 -5 -23 16 -62 30 -56 8 3 17 -2 20 -10 4 -9 15 -16
25 -16 10 0 24 -6 31 -12 11 -10 13 -10 7 0 -10 18 4 15 42 -8 l34 -21 43 45
c24 24 47 56 51 70 6 25 2 86 -11 156 -6 33 -5 34 9 15 31 -40 37 -45 61 -45
13 0 28 -6 32 -14 4 -7 38 -27 75 -44 48 -22 71 -39 83 -61 15 -30 15 -31 -8
-31 -33 0 -75 -22 -120 -64 -32 -29 -38 -40 -34 -68 3 -32 6 -33 57 -41 30 -4
80 -17 112 -28 31 -12 67 -19 78 -16 11 3 20 1 20 -4 0 -5 -12 -9 -26 -9 -14
0 -23 -4 -20 -8 2 -4 -3 -9 -12 -10 -73 -8 -166 -22 -184 -28 -12 -3 -43 -6
-69 -5 -27 0 -51 -4 -55 -10 -4 -7 114 -9 383 -6 213 3 393 6 398 7 19 4 220
-13 205 -17 -42 -12 -45 -15 -25 -23 38 -16 103 -11 114 8 9 15 10 15 11 -5 0
-12 3 -28 6 -37 4 -11 0 -16 -14 -16 -16 0 -22 -9 -27 -42 -12 -84 -16 -96
-34 -101 -13 -3 -21 -18 -26 -46 -7 -44 -17 -48 -84 -35 -22 5 -30 11 -27 20
3 9 -7 20 -27 29 -18 9 -43 22 -57 30 -45 26 -227 17 -216 -11 6 -16 -9 -20
-99 -30 l-70 -7 40 -12 40 -13 -75 -2 c-398 -10 -531 -17 -542 -29 -11 -10
-10 -15 4 -25 11 -8 66 -11 195 -9 204 2 306 -8 156 -17 -64 -4 -96 -10 -110
-22 -12 -10 -31 -15 -55 -13 -42 4 -56 -8 -37 -31 10 -13 10 -17 -2 -25 -10
-6 -4 -9 21 -10 64 -2 265 3 268 6 2 2 -20 7 -50 12 -56 9 -39 11 342 39 104
8 94 20 -20 24 l-65 3 85 7 c47 5 101 10 120 12 33 3 35 1 35 -27 0 -23 -5
-31 -21 -33 -16 -2 -24 -13 -30 -45 -7 -33 -14 -43 -32 -45 -18 -3 -22 -10
-22 -38 0 -19 -4 -34 -10 -34 -5 0 -10 6 -10 13 -1 22 -17 -16 -30 -70 -6 -29
-16 -53 -21 -53 -5 0 -9 5 -9 12 0 30 -19 -13 -35 -80 -9 -40 -22 -75 -28 -79
-6 -4 -8 2 -5 15 4 12 3 22 -2 22 -4 0 -12 -19 -17 -42 -10 -39 -11 -40 -13
-13 l-1 30 -14 -37 c-8 -20 -17 -58 -20 -83 -7 -44 -20 -64 -33 -50 -3 3 0 10
8 15 11 7 12 12 3 21 -9 9 -15 -1 -27 -42 -9 -29 -16 -61 -16 -72 0 -10 -9
-21 -20 -24 -19 -5 -24 -18 -46 -105 -7 -30 -19 -36 -27 -15 -3 6 -6 0 -6 -15
-1 -21 -6 -28 -20 -28 -22 0 -27 -10 -36 -74 -5 -30 -12 -46 -22 -46 -10 0
-12 6 -8 20 3 11 2 20 -2 20 -5 0 -16 -33 -24 -72 -10 -52 -18 -73 -29 -73
-10 0 -20 -19 -28 -55 -16 -66 -32 -87 -33 -44 -1 23 -3 20 -11 -16 -14 -69
-20 -79 -28 -50 -6 23 -8 23 -18 -15 -6 -22 -14 -73 -18 -112 -10 -104 -5
-107 120 -99 54 4 113 14 130 22 22 10 24 13 9 10 -13 -2 -23 -1 -23 4 0 9 36
20 68 20 32 0 27 20 -5 21 -27 2 -28 2 -3 6 14 3 33 12 44 21 10 10 21 15 24
12 4 -3 17 15 29 40 12 25 22 37 22 27 2 -36 19 -6 37 65 17 64 20 69 25 43
l6 -30 8 33 c5 21 12 31 21 28 13 -5 43 77 45 121 0 10 3 13 6 6 11 -30 31
-10 39 40 7 43 13 53 31 55 15 2 23 11 25 30 2 18 9 27 20 26 14 -1 20 12 29
58 8 42 16 58 25 54 13 -5 38 63 46 123 4 36 28 39 29 4 1 -15 9 7 18 50 9 43
20 77 26 75 5 -2 9 -9 7 -15 -2 -7 2 -13 8 -13 5 0 10 11 10 25 0 26 15 35 22
13 2 -6 12 24 22 68 23 96 35 123 36 74 0 -47 14 -27 29 43 7 31 17 57 22 57
5 0 9 -6 9 -12 0 -27 20 19 31 72 6 30 15 62 21 70 7 11 8 10 5 -7 -3 -13 -1
-23 4 -23 5 0 9 9 9 21 0 12 8 23 19 26 15 4 24 23 38 81 14 61 22 76 35 74
17 -3 23 8 34 71 7 41 24 50 25 15 1 -26 4 -20 19 39 7 28 15 40 24 37 9 -4
19 15 32 60 14 48 22 62 30 55 9 -7 14 -2 18 21 3 16 9 44 12 61 5 23 10 30
24 26 15 -4 20 6 30 54 13 61 26 75 32 37 3 -15 7 -7 12 25 8 46 25 65 27 30
0 -10 9 14 20 52 23 80 39 104 40 59 1 -29 1 -29 11 6 5 19 14 52 19 73 7 25
15 37 23 34 8 -3 17 12 26 46 18 71 31 99 46 93 7 -3 14 11 19 37 5 24 10 34
12 25 9 -35 22 -17 25 35 l3 52 135 6 c74 4 169 7 210 9 103 2 63 18 -55 21
l-90 2 110 7 c61 4 154 8 208 9 115 1 126 20 14 22 -64 1 -68 2 -32 9 44 9
294 22 258 14 -21 -5 -27 -17 -35 -69 -2 -13 -12 -21 -30 -23 -22 -3 -27 -9
-30 -35 -3 -27 -7 -32 -27 -29 -13 2 -21 0 -18 -5 7 -11 -15 -102 -31 -129
-11 -18 -11 -17 -13 6 l-1 25 -11 -27 c-6 -14 -18 -28 -26 -31 -16 -4 -51 -95
-51 -130 0 -10 -5 -17 -11 -17 -5 0 -7 5 -4 10 3 6 2 10 -3 10 -5 0 -15 -21
-22 -47 -14 -50 -30 -78 -31 -52 0 7 -8 -6 -18 -31 -10 -25 -21 -54 -26 -65
-7 -19 -8 -19 -15 5 -5 21 -8 18 -14 -22 -5 -36 -12 -48 -25 -48 -13 0 -21
-17 -35 -75 -10 -41 -22 -73 -26 -70 -5 3 -7 12 -3 20 3 8 3 15 0 15 -6 0 -19
-39 -37 -108 -7 -26 -16 -42 -23 -39 -7 2 -17 -12 -23 -32 -9 -28 -12 -31 -13
-13 -2 49 -20 8 -37 -86 -11 -58 -20 -86 -22 -69 -2 15 -7 27 -11 27 -12 0
-23 -113 -15 -144 5 -23 11 -26 51 -26 24 0 76 8 116 17 68 16 70 17 37 23
-31 6 -27 7 33 14 72 9 91 25 30 27 l-38 1 45 11 c64 17 415 16 432 0 9 -10 6
-13 -17 -14 -28 -1 -29 -1 -6 -8 13 -3 28 -15 32 -26 7 -18 8 -18 9 5 2 24 2
24 15 -6 9 -20 26 -36 44 -42 28 -10 30 -14 37 -81 6 -68 23 -108 25 -59 0 22
1 22 9 3 12 -29 12 -335 0 -335 -6 0 -11 30 -11 68 -1 37 -4 54 -5 37 -2 -16
-11 -99 -20 -183 -16 -145 -33 -207 -35 -125 -1 30 -5 20 -23 -52 -18 -71 -26
-89 -39 -87 -12 2 -17 -4 -17 -23 0 -18 -5 -25 -18 -25 -14 0 -22 -13 -32 -55
-9 -38 -18 -54 -28 -53 -8 2 -18 -5 -23 -14 -5 -10 -13 -26 -18 -35 -4 -10
-10 -16 -13 -13 -9 9 -37 -21 -32 -34 3 -7 -4 -21 -16 -31 -12 -11 -20 -13
-20 -6 0 7 -4 9 -10 6 -5 -3 -10 -15 -10 -26 0 -12 -7 -19 -20 -19 -12 0 -24
-10 -30 -24 -4 -13 -20 -26 -34 -30 -15 -4 -26 -14 -28 -29 -2 -13 -10 -22
-20 -22 -10 0 -23 -6 -30 -13 -6 -6 -23 -13 -38 -13 -23 -2 -23 -2 -2 -6 34
-7 26 -23 -12 -23 -19 0 -37 -4 -40 -9 -3 -5 2 -8 11 -7 9 0 18 -4 20 -9 2 -6
-24 -16 -57 -23 -52 -11 -59 -15 -57 -35 2 -19 -4 -22 -60 -29 -70 -8 -119
-27 -70 -28 55 0 25 -18 -50 -29 -92 -13 -151 -29 -115 -30 40 -2 23 -18 -20
-20 -24 -1 -68 -5 -98 -10 l-55 -7 60 -9 60 -9 -45 -7 c-56 -9 -431 -11 -482
-3 -21 4 -38 11 -38 15 0 5 17 10 38 10 23 1 6 6 -45 13 -83 11 -120 26 -67
26 22 0 26 3 14 10 -18 11 -352 12 -425 0 l-50 -7 54 -2 c107 -2 39 -12 -154
-23 -163 -8 -199 -8 -206 4 -7 10 -9 9 -9 -4 0 -16 10 -18 73 -19 116 -1 124
-15 13 -23 -54 -3 -101 -4 -104 -1 -3 3 -6 24 -7 48 -3 100 -2 97 -36 97 -25
0 -30 -3 -25 -17 10 -24 -11 -33 -81 -33 -66 0 -180 -21 -150 -28 45 -10 6
-20 -105 -25 -229 -13 -291 -8 -286 22 2 12 -6 17 -32 19 -19 2 -39 8 -45 13
-5 5 -19 9 -32 9 -13 0 -23 5 -23 12 0 7 -7 30 -15 53 -15 38 -18 40 -61 43
-59 4 -84 -5 -84 -28 0 -15 -15 -24 -62 -39 -44 -14 -55 -20 -35 -20 58 -2 23
-19 -60 -31 -102 -14 -129 -22 -95 -27 48 -9 18 -20 -70 -27 -167 -11 -338 -3
-338 17 0 5 9 7 21 4 13 -3 19 -1 16 6 -2 7 -28 17 -57 22 l-54 11 -12 49
c-11 48 -12 48 -13 15 -1 -32 -3 -33 -14 -15 -16 26 -16 536 0 580 11 28 11
27 13 -25 l1 -55 20 95 c19 88 39 139 39 97 0 -9 4 -17 9 -17 4 0 14 34 21 75
7 41 17 75 21 75 5 0 9 -5 9 -12 0 -23 15 4 30 55 13 44 20 53 48 61 17 5 32
13 32 17 0 5 -7 6 -16 2 -12 -4 -15 -1 -12 13 2 11 13 20 26 22 14 2 24 13 28
28 4 15 13 24 25 24 23 0 29 13 32 66 2 32 7 40 25 42 12 2 22 7 22 11 0 5
-12 6 -26 3 -23 -4 -25 -2 -19 17 5 16 1 23 -19 31 -31 11 -66 45 -66 64 0 9
-8 12 -25 8 -16 -3 -26 0 -27 9 -2 25 -5 34 -17 64 -7 16 -9 40 -6 53 3 14 2
21 -4 18 -5 -3 -12 -29 -16 -58 -6 -44 -9 -49 -20 -35 -10 15 -13 12 -24 -23
-6 -21 -19 -41 -29 -44 -12 -4 -23 -25 -31 -57 -9 -34 -20 -53 -32 -56 -10 -3
-19 -16 -21 -32 -2 -18 -8 -25 -20 -23 -13 2 -19 -10 -28 -53 -9 -42 -16 -55
-30 -55 -14 0 -21 -13 -30 -52 -21 -93 -22 -97 -30 -68 -7 23 -8 22 -15 -12
-4 -21 -13 -38 -20 -38 -12 0 -45 -67 -45 -93 0 -6 -5 -19 -10 -27 -9 -13 -11
-13 -19 -1 -7 11 -11 4 -17 -25 -8 -49 -21 -75 -35 -71 -6 1 -21 -32 -34 -73
-19 -64 -23 -71 -27 -45 -4 28 -5 28 -13 -13 -6 -33 -10 -40 -21 -31 -13 11
-17 1 -38 -94 -4 -18 -12 -27 -23 -25 -11 2 -19 -8 -25 -32 -5 -19 -14 -53
-20 -75 l-11 -40 -6 30 c-6 26 -9 19 -25 -48 -19 -78 -35 -107 -37 -65 -1 13
-7 1 -13 -27 -9 -39 -16 -50 -32 -50 -15 0 -21 -10 -28 -52 -9 -53 -26 -72
-26 -30 -1 18 -3 16 -15 -12 -8 -18 -15 -42 -15 -52 0 -18 -12 -19 -249 -19
-136 0 -276 -3 -310 -6 l-61 -7 0 32 c0 21 5 31 15 31 8 0 15 9 15 19 0 22 20
40 20 19 1 -26 17 17 30 80 12 59 30 93 30 57 0 -9 5 -13 10 -10 6 3 10 17 10
30 0 13 5 27 10 30 6 3 10 1 10 -4 0 -6 4 -11 8 -11 5 0 14 28 20 61 12 68 19
80 31 60 12 -19 17 -6 31 77 8 40 18 76 23 79 6 4 8 -5 5 -21 -3 -14 -2 -28 2
-31 3 -2 15 28 25 68 10 40 22 77 27 82 6 6 7 4 3 -6 -4 -10 -2 -20 4 -24 6
-3 11 0 11 7 0 7 5 31 12 53 l12 40 6 -30 c5 -26 9 -19 24 50 20 85 34 123 37
95 1 -8 1 -24 0 -35 -1 -24 22 40 38 108 14 61 14 174 0 183 -6 3 -83 10 -172
15 -172 9 -216 18 -96 20 52 1 67 3 49 9 -37 12 -268 12 -275 0 -4 -6 14 -10
47 -10 71 -1 44 -15 -44 -25 -65 -6 -68 -8 -69 -33 0 -15 -4 -36 -9 -47 -7
-17 -9 -14 -10 15 -1 19 -3 31 -5 25 -1 -5 -13 -44 -25 -85 -18 -57 -25 -70
-30 -55 -6 16 -10 11 -19 -25 -7 -25 -17 -61 -24 -80 l-11 -35 -6 30 -6 30 -7
-37 c-6 -27 -13 -38 -25 -38 -19 0 -42 -65 -42 -115 0 -18 -5 -25 -20 -25 -14
0 -22 -11 -30 -42 -6 -24 -15 -52 -20 -63 -8 -18 -9 -17 -9 8 -1 48 -17 21
-30 -53 -13 -70 -26 -89 -34 -47 -2 13 -7 2 -12 -30 -8 -56 -25 -72 -25 -25
-1 24 -2 23 -15 -12 -8 -22 -17 -57 -20 -78 -5 -28 -12 -38 -25 -38 -10 0 -21
-8 -23 -17 -3 -10 -10 -39 -17 -65 -7 -26 -15 -47 -19 -46 -3 1 -13 -2 -21 -5
-8 -4 -46 -11 -85 -16 l-70 -8 65 -3 65 -2 -50 -9 c-27 -5 -140 -12 -250 -17
-173 -8 -184 -9 -83 -10 64 -1 119 -6 122 -11 3 -4 -76 -11 -176 -15 -101 -4
-187 -8 -193 -9 -5 -1 -11 10 -13 26 -3 23 0 27 20 27 20 0 26 9 42 66 12 42
22 61 27 53 11 -18 13 -14 37 71 17 63 21 69 22 40 1 -29 3 -32 10 -15 5 11
16 47 26 80 13 47 18 56 24 40 7 -18 8 -17 14 8 18 80 19 84 23 60 7 -40 20
-25 30 35 7 50 11 57 30 55 19 -2 22 4 28 52 6 44 11 55 25 55 19 0 21 3 40
78 8 31 15 42 28 40 12 -2 18 5 20 25 2 18 9 27 22 27 15 0 20 11 27 53 7 40
13 52 26 51 17 -2 25 19 45 111 6 28 13 40 25 39 12 -1 17 6 17 27 0 37 20 38
21 2 0 -19 7 -7 19 36 22 72 28 81 40 62 5 -9 14 13 25 65 21 95 28 108 35 69
5 -26 8 -22 24 40 10 39 22 81 26 95 8 23 8 22 9 -10 1 -26 4 -31 11 -20 5 8
10 27 10 43 0 29 19 38 21 10 1 -18 27 60 36 110 3 15 9 27 13 27 5 0 10 -12
12 -27 2 -20 9 -3 23 55 13 56 23 81 32 78 8 -4 21 21 37 72 16 48 26 68 27
52 1 -23 2 -23 11 7 6 17 19 34 29 36 11 3 19 13 20 24 0 10 9 36 19 58 l19
40 1 -30 c2 -28 3 -27 11 10 22 94 30 115 45 115 8 0 17 13 21 30 3 20 12 30
23 30 13 0 21 13 30 50 12 49 29 67 31 33 0 -10 9 14 20 52 11 39 27 75 35 81
23 18 56 196 52 281 -4 85 -13 98 -60 88 -18 -5 -27 -10 -20 -12 24 -9 11 -21
-28 -27 -22 -3 -58 -9 -79 -12 -37 -5 -40 -8 -46 -45 -7 -43 -8 -44 -70 -55
-22 -3 -33 -9 -25 -12 45 -16 26 -42 -32 -42 -33 0 -37 -3 -40 -27 -2 -21 -9
-29 -28 -31 -21 -2 -28 -11 -39 -46 -10 -37 -18 -45 -44 -51 -18 -4 -35 -7
-39 -7 -3 1 -9 -12 -13 -28 -5 -22 -12 -30 -29 -30 -15 0 -25 -9 -33 -30 -6
-16 -18 -30 -27 -30 -10 0 -19 -15 -26 -42 -17 -66 -18 -68 -38 -68 -17 0 -20
-10 -26 -70 -4 -38 -11 -72 -17 -75 -5 -4 -9 0 -9 7 0 9 -3 9 -10 -2 -5 -8
-10 -34 -10 -57 0 -57 -20 -67 -21 -11 -2 40 -2 39 -10 -17 -5 -33 -9 -156
-10 -272 -1 -190 -3 -213 -18 -214 -13 -1 -13 -2 2 -6 10 -3 16 -10 14 -16 -5
-15 -153 -16 -212 -2 l-40 9 45 6 45 6 -57 8 c-47 7 -58 12 -58 27 0 14 -12
22 -45 30 -25 6 -48 16 -52 22 -4 6 0 8 10 4 10 -3 17 -2 17 3 0 6 -7 10 -15
10 -21 0 -34 33 -44 115 -6 51 -9 59 -10 30 -1 -22 -5 -46 -10 -54 -13 -20
-25 190 -15 252 7 41 13 51 26 49 12 -2 20 9 29 40 6 24 15 52 19 63 8 18 9
18 9 -5 1 -20 3 -22 11 -10 5 8 10 27 10 43 0 20 5 27 20 27 14 0 21 9 26 35
5 28 11 35 30 35 13 0 24 6 24 13 0 6 5 29 11 50 7 26 16 37 29 37 11 0 20 8
22 22 3 22 50 56 81 57 9 1 17 5 17 10 0 5 -9 7 -20 4 -32 -8 -23 7 10 18 22
8 30 17 30 35 0 13 5 24 11 24 6 0 8 -9 4 -21 -5 -15 -3 -20 6 -17 8 3 18 19
23 37 9 33 26 44 79 55 33 8 36 26 5 27 -13 0 13 12 57 27 68 22 75 27 50 30
l-30 4 40 13 c22 7 59 18 82 25 31 8 41 15 37 25 -5 11 1 15 19 15 33 0 46 20
15 21 -27 1 5 11 127 39 l80 18 -55 2 -55 2 70 13 c39 7 100 16 138 20 76 8
89 22 25 27 -28 2 -8 6 57 12 143 11 182 24 85 26 l-75 3 50 9 c28 5 232 12
455 17 223 4 413 8 423 9 13 2 17 -5 17 -28z m4353 -829 c15 -16 27 -34 27
-39 0 -5 19 -13 43 -17 23 -5 45 -9 50 -10 4 -1 19 -3 33 -4 14 0 23 -5 19
-10 -3 -5 -1 -12 5 -16 27 -17 -11 -25 -112 -25 -95 0 -113 3 -135 20 -20 16
-22 20 -9 20 23 0 56 32 38 38 -13 4 -17 54 -5 65 11 11 17 8 46 -22z m7280
-23 c9 -1 17 -5 17 -9 0 -11 31 -20 85 -25 92 -8 120 -32 141 -119 3 -16 13
-38 21 -47 14 -15 17 -16 39 -2 12 9 24 25 26 37 4 30 44 35 70 8 19 -21 22
-64 6 -87 -4 -6 -11 -43 -14 -82 -5 -53 -4 -72 5 -72 7 0 9 -5 5 -12 -4 -7 -4
-10 1 -6 4 4 17 1 29 -7 11 -8 28 -15 37 -15 9 0 20 -7 23 -15 3 -9 23 -24 44
-33 21 -10 58 -36 82 -59 35 -33 55 -43 92 -48 37 -5 48 -11 48 -25 0 -12 14
-21 47 -31 26 -7 42 -14 35 -17 -23 -7 -12 -19 31 -32 96 -29 95 -28 47 -29
-25 -1 -61 3 -80 9 -19 5 -172 13 -340 16 -287 5 -324 3 -458 -22 -13 -3 -20
-9 -17 -14 3 -6 0 -10 -7 -11 -7 0 -34 -3 -61 -5 -44 -5 -48 -4 -65 25 -9 17
-21 31 -25 31 -8 0 -62 36 -84 57 -7 6 -13 19 -13 27 0 12 -10 16 -37 16 -31
-1 -35 -3 -20 -11 25 -14 21 -29 -7 -29 -21 0 -25 -6 -28 -32 -2 -27 -8 -34
-29 -36 -23 -3 -28 -9 -33 -47 -6 -35 -12 -44 -29 -47 -15 -2 -24 -13 -30 -40
-7 -28 -14 -38 -28 -38 -14 0 -19 -7 -19 -25 0 -18 -5 -25 -19 -25 -15 0 -21
-10 -26 -42 -11 -71 -15 -80 -30 -68 -16 14 -19 9 -35 -60 -18 -77 -29 -94
-30 -45 l-1 40 -13 -50 c-8 -27 -16 -63 -20 -78 -4 -19 -12 -27 -24 -25 -12 2
-18 -5 -20 -25 -3 -20 -8 -27 -18 -23 -15 6 -30 -21 -44 -79 -4 -16 -12 -29
-19 -27 -6 1 -13 -3 -15 -10 -17 -60 -40 -108 -51 -108 -9 0 -17 -18 -22 -47
l-7 -48 -6 40 -6 40 -12 -53 c-7 -29 -12 -84 -12 -121 l0 -68 49 -7 c46 -6 48
-8 47 -36 -1 -29 -2 -30 -52 -30 -51 0 -52 1 -58 33 -5 27 -11 33 -29 33 -21
-1 -22 2 -21 81 1 98 24 222 34 183 5 -20 11 -11 30 52 12 43 27 75 31 72 11
-6 32 44 24 56 -10 17 -63 -11 -69 -36 -4 -13 -11 -23 -17 -21 -6 1 -16 -12
-23 -30 -6 -17 -15 -35 -19 -40 -12 -11 -37 26 -37 55 0 19 -4 22 -20 17 -12
-4 -35 -8 -53 -10 -18 -2 -43 -8 -57 -13 -19 -7 -32 -6 -51 6 -30 17 -56 11
-67 -15 -4 -10 -13 -18 -19 -19 -7 -1 -24 -2 -38 -2 -20 -2 -27 -9 -32 -33 -3
-19 -14 -34 -28 -39 -16 -6 -24 -20 -29 -48 -6 -37 -9 -41 -45 -47 -32 -5 -42
-12 -50 -36 -7 -19 -17 -29 -30 -29 -18 0 -21 -6 -21 -41 0 -32 3 -40 15 -35
8 3 15 2 15 -2 0 -4 14 -16 30 -25 17 -10 30 -24 30 -31 0 -6 16 -18 35 -25
23 -8 35 -19 35 -31 0 -13 10 -22 33 -29 l32 -9 -40 -1 c-90 -1 -169 28 -135
49 12 8 9 10 -10 10 -30 0 -50 17 -50 42 0 9 -9 22 -19 28 -25 13 -91 13 -91
0 0 -5 -9 -10 -20 -10 -12 0 -24 -10 -29 -24 -10 -25 -43 -34 -131 -37 -30 -1
-36 -3 -17 -6 15 -2 27 -10 27 -17 0 -15 -43 -26 -106 -26 l-43 0 -3 58 c-3
51 -5 57 -25 57 -44 1 -48 16 -48 188 0 89 3 178 8 197 l7 35 -22 -29 c-13
-16 -30 -37 -38 -47 -13 -16 -45 -26 -98 -28 -7 -1 -17 -12 -22 -26 -13 -33
-26 -32 -39 6 -16 47 -35 31 -42 -37 l-6 -59 -2 50 c-4 90 -14 127 -37 136
-21 7 -22 4 -29 -89 -4 -53 -7 -118 -6 -144 2 -40 -1 -48 -16 -49 -10 -1 -33
-3 -50 -5 -32 -4 -33 -3 -33 35 0 36 -2 38 -31 39 -22 0 -32 -5 -39 -21 -5
-12 -9 -16 -9 -9 -1 20 -21 13 -21 -8 0 -19 -32 -45 -43 -34 -3 3 -15 -14 -26
-39 -18 -39 -26 -46 -58 -52 -45 -7 -98 -34 -70 -35 9 0 17 -4 17 -9 0 -12
-86 -27 -171 -30 -41 -1 -75 -4 -77 -6 -2 -2 20 -7 50 -12 52 -10 53 -10 18
-16 -85 -15 -252 -37 -287 -38 l-38 -1 38 -8 c81 -15 42 -20 -170 -20 l-220 0
-7 31 c-8 40 -8 203 0 252 7 41 21 49 26 15 2 -13 12 21 22 74 10 54 23 101
28 105 7 4 9 -2 6 -15 -4 -12 -3 -24 1 -27 9 -5 27 50 37 113 4 23 11 42 16
42 5 0 6 -4 3 -10 -3 -5 -2 -18 3 -27 8 -13 12 -4 17 40 4 32 11 60 16 63 5 3
9 0 9 -7 0 -27 15 5 30 64 12 48 19 61 32 59 13 -2 19 7 23 35 11 63 16 74 33
71 11 -2 18 5 20 18 2 12 11 24 22 27 10 3 20 17 24 36 20 104 17 97 32 76 8
-10 14 -16 14 -13 0 4 7 35 16 70 9 35 20 97 24 138 l7 75 2 -75 c3 -81 19
-73 20 10 1 25 5 59 9 75 6 21 3 47 -9 85 l-17 55 -2 -40 -2 -40 -10 48 -10
47 -67 0 c-89 0 -113 -7 -106 -31 5 -15 1 -19 -19 -19 -18 0 -25 -6 -28 -22
-2 -16 -12 -24 -33 -28 -24 -4 -29 -10 -27 -28 3 -17 -2 -22 -18 -22 -15 0
-25 -11 -36 -35 -9 -23 -21 -35 -33 -35 -13 0 -21 -8 -23 -22 -2 -15 -11 -24
-25 -26 -14 -2 -23 -10 -23 -20 0 -45 -21 -91 -43 -94 -16 -2 -21 -9 -20 -25
2 -16 -4 -23 -19 -25 -17 -2 -24 -13 -30 -43 -11 -51 -28 -69 -29 -29 0 21 -7
8 -27 -49 -19 -55 -28 -72 -33 -60 -6 15 -9 14 -18 -10 -6 -16 -11 -36 -11
-45 0 -25 -15 -43 -31 -40 -9 2 -15 -8 -17 -30 -2 -23 -8 -32 -19 -30 -11 2
-20 -12 -32 -49 -12 -42 -20 -53 -36 -53 -18 0 -23 -9 -31 -52 -7 -39 -13 -52
-25 -50 -11 1 -21 -16 -34 -60 -18 -58 -20 -61 -25 -33 -6 28 -7 27 -14 -17
-8 -51 -26 -75 -26 -36 -1 13 -13 -13 -27 -57 -21 -61 -28 -74 -31 -55 -3 19
-10 6 -26 -50 -14 -49 -27 -75 -36 -75 -9 0 -16 -11 -18 -27 -2 -20 -9 -28
-24 -28 -13 0 -24 -10 -31 -30 l-11 -29 -316 -3 c-173 -2 -321 -1 -328 1 -9 2
-11 12 -8 27 7 28 11 27 -159 24 -96 -2 -277 -26 -218 -29 12 0 25 -5 28 -11
4 -7 -67 -10 -204 -10 -181 0 -211 2 -211 15 0 8 -9 15 -19 15 -11 0 -22 4
-25 9 -3 4 -19 11 -36 14 -21 5 -30 12 -30 26 0 19 -17 39 -35 40 -5 0 -12 10
-15 23 -5 20 -12 23 -50 23 -39 0 -45 -3 -50 -25 -4 -17 -16 -28 -41 -35 -24
-7 -33 -15 -31 -26 4 -21 -19 -27 -138 -35 -74 -6 -90 -9 -72 -17 12 -6 22
-13 22 -17 0 -11 -243 -22 -325 -15 -58 6 -74 11 -78 25 -3 12 -18 20 -45 25
-51 8 -58 17 -76 91 -12 49 -14 53 -15 25 -2 -60 -10 -28 -21 75 -11 105 -3
354 11 354 5 0 10 -24 11 -52 1 -45 2 -47 5 -13 3 43 21 149 29 178 3 10 11
16 17 14 7 -2 17 10 23 27 7 19 17 30 27 28 12 -2 18 14 28 73 6 42 16 78 20
81 5 3 9 0 9 -6 0 -27 19 4 30 50 13 52 27 71 40 50 9 -15 22 12 28 56 1 7 17
15 35 18 26 6 36 16 57 58 23 46 25 49 31 27 4 -13 7 -17 8 -8 2 37 32 79 56
79 27 0 43 19 26 30 -13 7 19 23 72 35 19 4 27 11 24 19 -7 17 12 36 35 36 11
0 23 11 28 25 8 20 16 25 45 25 19 0 35 4 35 10 0 5 -7 7 -15 4 -9 -4 -15 0
-15 8 0 10 20 20 55 28 37 9 54 18 51 26 -3 8 15 18 52 29 112 33 112 33 62
35 l-45 3 40 8 c22 4 56 12 75 17 35 10 35 10 5 11 -57 2 -10 20 94 35 57 8
106 18 109 21 3 3 -24 6 -59 6 l-64 1 55 10 c66 11 290 11 375 0 58 -8 55 -8
-75 -18 l-135 -11 130 -2 c135 -2 158 -8 168 -46 4 -18 5 -18 6 3 1 23 15 30
26 12 4 -6 7 -24 7 -40 l1 -30 76 1 c42 1 119 5 171 9 93 7 91 7 -70 10 l-165
3 160 8 c88 5 216 13 285 17 l125 9 -145 3 c-133 3 -139 4 -70 10 41 4 137 11
213 15 l137 8 -1 -24 c-2 -46 -15 -74 -32 -71 -18 3 -21 -2 -31 -51 -5 -22
-11 -27 -26 -22 -16 5 -20 -3 -31 -70 -6 -41 -16 -75 -22 -75 -5 0 -7 9 -4 20
3 11 1 20 -4 20 -4 0 -16 -26 -25 -57 -20 -71 -24 -79 -35 -62 -9 15 -11 10
-24 -46 -6 -26 -8 -27 -14 -10 -6 14 -12 1 -26 -50 -23 -89 -34 -110 -35 -70
l-1 30 -13 -35 c-8 -20 -17 -55 -21 -78 -8 -50 -24 -65 -26 -25 l-1 28 -7 -30
c-4 -20 -13 -31 -28 -33 -21 -3 -22 -5 -38 -110 -5 -31 -11 -42 -23 -40 -11 2
-20 -10 -29 -42 -21 -72 -25 -79 -32 -45 -6 26 -9 19 -26 -52 -20 -84 -34
-105 -36 -55 -1 16 -5 6 -11 -25 -8 -42 -13 -53 -29 -53 -12 0 -21 -9 -25 -27
-3 -16 -12 -48 -19 -73 l-13 -45 -1 35 c-2 52 -16 20 -35 -78 -12 -66 -13 -94
-4 -138 l11 -54 78 0 c97 0 107 19 12 22 l-68 1 75 7 c97 8 180 30 180 47 0 7
11 18 25 23 30 11 34 25 5 17 -42 -11 -18 10 28 24 36 11 48 19 50 37 4 26 19
29 24 5 3 -11 14 9 29 47 17 47 25 59 27 42 4 -29 22 -18 22 13 0 17 6 25 22
27 15 2 24 13 30 36 7 24 13 32 24 28 9 -3 17 1 20 12 3 9 10 25 15 34 5 10 9
27 9 39 0 16 5 20 19 16 16 -4 20 3 26 40 9 63 14 73 36 73 14 0 19 7 19 28 0
35 9 45 26 31 10 -8 14 -2 19 28 12 77 15 85 30 79 16 -6 28 30 40 117 5 35
10 47 20 43 10 -3 20 22 39 97 13 56 25 92 25 80 2 -45 19 -22 27 35 6 49 8
53 13 27 9 -41 16 -24 31 65 16 97 28 129 30 80 2 -35 2 -35 10 -7 5 15 12 57
15 92 l7 63 77 7 c42 4 99 10 126 15 44 7 37 8 -55 10 l-105 2 120 13 c66 7
201 15 300 19 211 9 266 25 95 27 l-115 2 95 7 c52 5 123 11 157 14 l62 6 3
-77 3 -78 40 -3 c21 -2 53 -1 71 2 27 6 32 12 40 48 10 48 18 52 159 67 l80 8
-90 3 c-62 1 -82 4 -65 10 32 10 357 10 430 0 l55 -7 -60 -2 c-80 -3 -120 -19
-50 -20 28 -1 74 -4 103 -7 46 -6 52 -9 52 -30 0 -15 6 -24 15 -24 18 0 19 12
3 28 -9 9 -9 12 4 12 10 0 18 -14 24 -42 7 -33 14 -43 33 -48 18 -4 28 -16 34
-40 13 -48 1 -295 -17 -350 -9 -29 -14 -37 -15 -22 -2 43 -18 22 -30 -40 -12
-63 -18 -89 -21 -98 -1 -3 -6 9 -9 25 l-7 30 -13 -45 c-8 -25 -19 -61 -27 -80
-12 -32 -13 -33 -14 -10 -2 23 -3 22 -11 -6 -5 -18 -17 -34 -28 -37 -15 -4
-23 -20 -32 -66 -12 -61 -29 -91 -29 -52 0 12 -4 21 -10 21 -5 0 -10 -8 -10
-17 0 -10 -5 -35 -11 -56 -7 -27 -15 -37 -27 -35 -12 2 -18 -5 -20 -24 -2 -19
-9 -28 -21 -28 -18 0 -33 -36 -35 -85 -1 -11 -10 -21 -25 -25 -21 -5 -26 -15
-37 -69 -15 -74 -24 -89 -24 -41 0 18 -3 31 -6 28 -11 -12 -33 -164 -28 -199
5 -32 10 -37 52 -49 41 -12 54 -11 111 3 35 10 70 25 77 35 13 16 13 16 14 -3
0 -13 8 -6 21 23 17 36 26 44 64 54 25 7 44 17 42 23 -4 12 22 40 30 31 9 -9
43 24 43 41 0 11 4 10 18 -3 16 -17 17 -16 20 17 4 43 19 61 43 54 17 -6 19 0
20 57 0 35 2 71 4 81 6 32 15 32 16 1 1 -47 14 -2 28 99 7 48 18 87 23 87 6 0
8 -9 5 -20 -3 -12 0 -20 8 -20 8 0 17 27 24 77 6 42 13 79 16 81 2 3 11 -1 20
-8 12 -10 15 -9 16 6 1 11 1 24 0 31 -1 6 3 14 9 18 5 3 10 17 10 31 0 13 5
24 10 24 6 0 10 -8 10 -17 0 -15 2 -16 10 -3 5 8 10 27 10 42 0 20 6 27 23 30
14 2 22 10 23 24 2 30 14 46 29 40 8 -3 19 2 25 10 10 11 10 14 0 14 -9 0 -7
7 5 20 10 11 26 20 37 20 11 0 18 7 18 19 0 13 8 21 23 23 12 2 21 9 19 17 -3
16 17 43 28 36 12 -7 40 5 40 17 0 6 -11 8 -25 6 -45 -9 -26 7 27 23 41 12 54
21 58 40 4 16 14 25 30 27 56 6 70 13 70 32 0 13 7 20 20 20 11 0 20 4 20 10
0 5 -7 7 -15 4 -9 -4 -15 0 -15 9 0 9 14 17 38 21 55 10 72 16 72 27 0 5 -10
9 -22 10 -13 1 0 7 27 14 28 7 75 20 105 28 l55 16 -45 2 c-44 1 -43 2 20 12
36 6 57 12 48 15 -37 8 -18 31 30 37 26 4 72 13 102 20 l55 13 -60 2 -60 2 70
14 c116 24 508 12 437 -13 -19 -7 -4 -23 23 -23 13 0 27 -4 30 -10 3 -5 15
-10 26 -10 10 0 19 -7 19 -15 0 -18 -16 -20 -23 -2 -4 7 -6 6 -6 -5 -1 -24 61
-31 192 -22 l112 8 -55 10 c-57 10 -56 11 21 21 37 5 48 11 53 27 7 28 -8 46
-42 50 -19 2 -27 9 -27 23 0 13 -9 22 -28 27 -78 22 -82 24 -79 41 2 13 -4 17
-28 17 -23 0 -33 5 -37 19 -4 14 -19 23 -54 30 -28 6 -57 11 -65 11 -11 0 -13
6 -9 20 5 14 2 20 -10 20 -9 0 -26 11 -38 23 -12 13 -29 27 -37 30 -8 3 36 6
98 6 61 1 112 -2 112 -5 0 -4 -8 -12 -17 -19 -14 -11 -1 -14 81 -20 114 -9
240 -3 258 13 9 7 22 5 46 -7 26 -14 44 -16 85 -9 29 4 77 10 107 13 78 9 102
14 96 23 -3 5 14 9 37 11 23 1 43 4 45 6 3 2 21 2 41 -1 20 -2 44 -5 54 -6z
m-6697 -60 c15 -7 24 -23 28 -49 3 -21 18 -64 32 -95 32 -70 25 -103 -11 -50
-14 20 -25 41 -25 46 0 6 -7 10 -15 10 -8 0 -23 18 -32 40 -12 27 -25 41 -43
45 -14 3 -38 16 -54 30 l-27 24 43 8 c46 10 70 8 104 -9z m-9081 -222 l50 -11
-35 -6 -35 -5 42 -12 c31 -9 44 -20 51 -40 10 -25 10 -25 11 -4 1 12 5 22 11
22 5 0 9 -10 7 -22 l-2 -23 170 4 c193 4 260 19 95 22 l-105 2 140 13 c77 7
190 13 250 14 116 1 173 12 125 24 -14 3 -36 7 -50 9 -14 3 1 5 33 6 l57 1 0
-45 c0 -41 -2 -45 -25 -45 -20 0 -25 -5 -25 -25 0 -14 -4 -25 -10 -25 -5 0
-10 -11 -10 -24 0 -38 -18 -41 -23 -4 -3 29 -4 28 -5 -9 -1 -23 -7 -54 -13
-70 -10 -25 -12 -26 -18 -9 -6 14 -12 3 -28 -45 -14 -45 -25 -63 -35 -61 -11
2 -19 -14 -28 -58 -9 -44 -17 -60 -28 -58 -15 3 -18 -5 -36 -85 -5 -19 -12
-27 -24 -25 -12 2 -18 -5 -20 -25 -2 -20 -8 -27 -17 -23 -14 5 -19 -7 -41 -97
-4 -16 -12 -26 -19 -24 -12 5 -25 -23 -45 -101 -6 -23 -15 -40 -20 -37 -4 3
-6 15 -3 28 3 12 3 20 0 16 -4 -3 -13 -30 -21 -60 -9 -37 -19 -54 -29 -53 -10
1 -19 -14 -27 -45 -10 -37 -14 -42 -20 -26 -6 17 -8 15 -18 -15 -6 -19 -14
-54 -17 -77 -4 -24 -11 -43 -17 -43 -5 0 -7 9 -3 19 3 11 2 22 -3 25 -5 3 -15
-20 -22 -52 -7 -31 -17 -61 -21 -67 -4 -5 -9 -21 -12 -35 -3 -20 -5 -18 -6 10
-2 29 -4 32 -11 15 -5 -11 -9 -34 -9 -52 -1 -28 -21 -61 -21 -34 0 6 -4 11 -9
11 -13 0 -26 -149 -14 -161 5 -5 33 -13 63 -19 69 -13 190 12 197 40 5 18 46
28 91 22 39 -6 27 -37 -22 -57 -25 -10 -44 -23 -43 -29 3 -12 -68 -34 -115
-35 -47 -1 -59 -19 -16 -23 21 -2 1 -8 -57 -16 -49 -8 -124 -19 -165 -27 -69
-12 -72 -13 -30 -15 41 -2 42 -3 17 -10 -43 -13 -287 -23 -361 -15 -55 5 -66
10 -66 25 0 14 -10 21 -37 26 -53 9 -73 22 -67 39 4 8 1 16 -5 16 -37 4 -51
16 -51 45 0 20 -5 24 -32 24 -52 0 -78 -11 -78 -31 0 -12 -7 -19 -19 -19 -11
0 -22 -4 -25 -9 -3 -4 -20 -11 -38 -15 -24 -5 -29 -9 -20 -18 8 -8 15 -8 28 3
15 12 17 12 12 0 -6 -19 -43 -29 -136 -37 -64 -6 -73 -9 -69 -25 4 -15 -6 -18
-75 -24 -44 -4 -131 -4 -194 0 -102 6 -114 9 -114 26 0 13 -10 20 -35 25 -28
5 -35 11 -35 30 0 16 -6 24 -17 24 -13 0 -14 -3 -5 -12 16 -16 15 -28 -2 -28
-22 0 -37 105 -43 293 -4 109 -1 195 6 245 19 117 21 123 40 117 14 -4 19 7
30 57 7 35 16 72 21 83 8 18 9 18 11 -5 1 -14 1 -29 0 -33 -1 -5 3 -6 8 -3 5
3 12 26 16 51 7 48 33 129 34 107 2 -24 21 -1 21 24 0 17 5 24 20 24 11 0 21
6 22 13 0 6 2 17 2 22 3 21 18 35 36 35 13 0 22 9 26 26 4 14 17 30 30 34 14
6 24 18 24 30 0 15 7 20 24 20 18 0 26 6 28 22 2 14 12 24 28 28 14 3 26 14
29 25 4 26 21 46 32 39 5 -3 19 2 31 10 12 9 17 16 10 16 -6 0 -12 4 -12 9 0
5 21 13 48 17 37 7 48 14 50 31 2 15 11 23 30 25 19 2 27 9 27 22 0 14 10 22
31 28 18 4 34 16 37 27 3 11 17 21 36 25 17 3 45 9 62 12 28 5 29 7 13 19 -16
11 -11 14 41 26 l60 13 -50 7 c-27 3 -45 7 -38 7 84 12 210 36 218 43 5 5 -7
9 -30 10 -39 1 -39 1 15 14 70 16 368 17 435 1z m1369 -458 c3 -13 6 -38 6
-55 0 -21 5 -33 14 -33 9 0 16 -18 20 -52 14 -128 26 -153 107 -225 23 -20 39
-42 39 -51 0 -11 53 -38 90 -46 14 -3 50 -13 80 -21 59 -16 207 -18 226 -3 7
5 16 7 22 6 16 -5 52 43 52 67 0 15 6 22 16 21 10 0 21 11 27 29 5 17 13 32
17 35 3 3 9 13 13 23 3 9 11 17 16 17 18 0 23 -45 7 -74 -12 -23 -15 -25 -18
-9 -2 10 -11 -18 -19 -62 -12 -68 -17 -80 -34 -80 -16 0 -21 -10 -28 -53 l-9
-53 -31 6 c-18 4 -47 14 -65 22 -25 12 -66 16 -168 15 -134 -1 -179 -6 -169
-21 8 -14 -66 -71 -92 -71 -22 0 -24 3 -19 28 17 86 17 103 1 154 -10 29 -23
64 -30 78 -7 14 -20 41 -29 60 -9 19 -21 42 -26 50 -5 8 -18 36 -29 63 -11 26
-26 47 -34 47 -8 0 -20 14 -27 30 -7 17 -13 30 -14 31 0 0 -40 4 -89 8 -48 4
-90 10 -93 14 -14 14 10 27 48 27 51 0 108 20 108 37 0 7 11 15 24 19 14 3 32
14 42 25 23 25 40 24 48 -3z m2010 -393 c8 -40 0 -62 -24 -70 -19 -6 -30 -33
-30 -77 0 -15 -4 -30 -10 -33 -5 -3 -10 -1 -10 5 0 6 -4 8 -10 5 -5 -3 -12
-28 -16 -56 -5 -41 -11 -52 -30 -60 -16 -5 -24 -16 -24 -32 0 -13 -5 -38 -11
-56 -9 -24 -14 -29 -24 -21 -15 13 -20 7 -30 -38 -5 -26 -15 -36 -46 -50 -23
-10 -39 -23 -39 -34 0 -20 -17 -33 -45 -33 -28 0 -25 -29 3 -33 24 -4 31 -22
7 -22 -8 0 -15 -4 -15 -10 0 -5 7 -10 15 -10 8 0 15 -4 15 -10 0 -5 -9 -10
-20 -10 -14 0 -20 7 -20 21 0 11 -7 27 -15 35 -32 33 9 140 42 112 10 -8 12
-4 7 18 -7 35 17 110 34 106 13 -2 16 4 26 50 4 17 11 25 19 22 10 -3 17 18
27 78 10 65 15 77 21 59 12 -32 26 -19 33 34 6 38 11 45 30 45 20 0 24 6 30
49 6 45 9 50 34 53 53 6 70 -2 76 -37z m894 -557 c9 -9 12 -9 12 0 0 7 4 12 8
12 5 0 13 -59 20 -132 10 -120 9 -133 -6 -144 -22 -16 -29 -8 -37 41 -4 23 -3
35 2 28 5 -7 14 -9 22 -4 19 12 1 20 -39 16 -19 -2 -38 -4 -42 -4 -5 -1 -8
-11 -8 -23 0 -46 -12 -68 -35 -68 -27 0 -33 12 -27 52 3 18 10 28 21 28 14 0
20 17 30 91 10 68 16 89 26 85 8 -3 17 3 20 15 7 22 16 24 33 7z m4377 -44
c-2 -18 0 -34 5 -34 6 0 10 9 10 21 0 11 4 18 9 15 5 -3 8 -31 7 -63 -1 -54
-2 -57 -30 -64 -16 -5 -33 -14 -37 -21 -7 -10 -15 -10 -41 0 -30 11 -34 10
-60 -15 -15 -15 -28 -32 -28 -39 0 -6 -8 -15 -17 -18 -40 -15 -63 -32 -69 -49
-3 -9 -9 -15 -14 -12 -5 3 -13 -2 -18 -12 -8 -14 -11 -8 -17 28 -4 24 -5 51
-3 59 4 18 28 39 47 40 14 0 83 74 81 86 -2 9 96 62 125 68 21 4 36 19 31 31
-6 15 3 27 15 19 5 -3 7 -21 4 -40z m-5679 -56 c8 -13 9 -18 14 -73 6 -77 1
-95 -25 -95 -16 0 -25 -6 -25 -16 0 -14 -2 -14 -16 0 -9 9 -17 22 -18 29 -4
28 -24 50 -40 44 -12 -5 -16 0 -16 18 0 18 5 25 20 25 16 0 20 7 20 33 0 19 3
37 7 40 11 12 71 8 79 -5z m2266 -409 c-3 -30 -9 -43 -23 -46 -21 -6 -25 -18
-9 -28 6 -4 8 -10 5 -15 -3 -5 -1 -19 4 -32 8 -21 6 -23 -17 -22 -34 1 -70 54
-47 67 22 12 18 27 -7 26 -13 0 -42 3 -65 7 -30 5 -43 3 -43 -5 0 -9 -6 -9
-22 -1 -21 10 -22 10 -5 -4 11 -8 25 -12 33 -9 8 3 14 0 14 -7 0 -8 -11 -10
-37 -6 -21 3 -43 7 -50 8 -7 1 -10 5 -7 10 3 4 0 8 -5 8 -6 0 -11 4 -11 10 0
5 27 12 60 16 68 7 83 18 42 30 -25 7 -24 8 23 20 28 6 77 13 110 13 l61 1 -4
-41z m949 31 c24 0 29 -4 29 -25 0 -20 6 -25 35 -31 44 -8 402 -1 411 9 4 3 2
13 -5 21 -9 11 -7 15 11 20 33 8 68 7 68 -2 0 -16 -23 -30 -39 -25 -11 3 -9
-1 5 -14 14 -11 22 -30 22 -50 1 -37 -15 -42 -52 -18 -19 13 -54 14 -240 7
-203 -8 -218 -10 -237 -30 -11 -12 -27 -22 -35 -22 -8 0 -26 -12 -39 -26 -14
-15 -25 -23 -26 -18 0 5 -7 -7 -15 -26 l-14 -35 5 35 c3 18 9 37 15 40 13 8
32 99 25 121 -4 11 -12 19 -20 19 -12 0 -25 21 -25 40 0 9 56 19 78 13 8 -1
27 -3 43 -3z m6862 -220 c36 -9 47 -16 43 -27 -4 -9 5 -19 28 -28 26 -11 35
-22 38 -45 4 -28 2 -30 -27 -30 -37 0 -85 20 -85 37 0 29 -140 49 -255 36 -58
-7 -72 -12 -80 -30 -6 -15 -22 -24 -47 -28 -33 -6 -39 -11 -47 -43 -28 -107
-25 -102 -31 -52 -5 42 -6 38 -17 -45 -8 -60 -9 -113 -3 -158 10 -79 20 -98
21 -41 1 43 0 43 29 -53 9 -30 19 -43 32 -43 11 0 18 -7 18 -19 0 -16 11 -22
59 -32 50 -9 58 -14 54 -30 -5 -18 1 -19 88 -18 114 1 167 16 69 20 -53 2 -57
3 -20 6 73 6 158 34 163 55 4 13 15 18 41 18 31 0 36 -3 36 -22 -1 -13 -7 -34
-15 -48 -13 -22 -14 -23 -15 -5 -1 18 -2 18 -10 -3 -11 -25 -40 -39 -114 -51
-44 -8 -46 -9 -16 -10 29 -1 32 -3 17 -12 -21 -12 -262 -18 -273 -6 -5 4 -3
12 4 16 9 5 -9 13 -47 21 -51 11 -61 17 -72 42 -7 17 -17 27 -25 24 -17 -6
-23 4 -38 62 -8 34 -16 46 -27 44 -20 -3 -29 42 -29 154 0 119 9 174 29 174
11 0 21 15 30 45 12 40 20 49 65 71 28 13 41 23 29 20 -13 -2 -23 0 -23 5 0 8
44 22 124 39 52 11 236 5 299 -10z m325 -325 c1 -181 0 -336 -3 -344 -4 -10
-8 -11 -19 -2 -11 9 -15 9 -19 -1 -3 -9 -8 -10 -15 -3 -10 9 -15 244 -13 567
l1 118 33 -3 32 -3 3 -329z m774 223 c3 -109 4 -113 26 -116 16 -3 22 2 22 17
0 15 9 22 38 27 20 3 51 10 67 14 30 8 29 8 -10 10 -39 2 -39 3 -10 10 41 10
126 10 150 0 19 -8 19 -9 -3 -9 -45 -2 -10 -21 38 -21 43 0 49 -3 52 -22 2
-15 11 -24 26 -26 27 -4 28 -6 46 -92 l14 -65 2 45 c1 33 3 40 9 25 13 -33 22
-167 13 -205 -8 -34 -9 -34 -17 -10 -7 22 -10 19 -24 -35 -13 -45 -21 -60 -34
-59 -9 1 -17 -2 -17 -7 0 -5 7 -9 15 -9 8 0 15 -4 15 -10 0 -5 -10 -10 -23
-10 -13 0 -29 -6 -35 -12 -7 -7 -36 -15 -65 -19 l-52 -6 45 -2 c33 -1 41 -4
30 -11 -8 -5 -62 -10 -119 -10 -89 0 -102 2 -97 15 3 10 -1 18 -12 21 -9 3
-24 8 -32 11 -26 10 -51 10 -56 1 -3 -4 -18 -8 -35 -8 l-29 0 -2 68 c-1 37 -2
190 -3 339 l0 273 32 0 32 0 3 -112z m-4272 42 c7 -33 17 -60 21 -60 5 0 9 6
9 13 1 30 20 -23 31 -85 7 -38 16 -68 21 -68 5 0 7 4 3 9 -3 5 -1 12 4 16 9 5
27 -44 46 -127 4 -16 12 -25 20 -22 9 4 15 -12 21 -53 6 -45 9 -51 12 -28 l4
30 17 -35 c12 -26 22 -35 41 -35 21 0 27 7 34 38 7 25 15 36 25 35 11 -2 18
11 25 52 8 46 11 50 14 25 3 -24 9 -12 26 55 16 64 26 84 37 82 12 -2 19 15
29 68 13 68 29 93 31 48 0 -13 7 1 15 31 18 66 21 71 45 71 17 0 19 -8 20 -77
1 -94 16 -155 19 -83 l2 45 9 -55 c4 -30 13 -138 19 -240 6 -102 16 -189 21
-194 5 -6 10 7 10 35 2 39 3 37 12 -24 7 -49 6 -72 -2 -80 -8 -8 -11 -8 -11 2
0 11 -3 11 -14 1 -8 -6 -12 -18 -9 -26 3 -8 1 -14 -5 -14 -6 0 -15 24 -20 53
l-10 52 -2 -45 c-2 -38 -3 -41 -10 -20 -4 14 -9 57 -10 95 -2 83 -16 179 -19
130 -4 -61 -20 8 -20 91 l-1 81 -30 0 c-27 0 -30 -4 -39 -46 -11 -52 -29 -102
-30 -83 -2 31 -19 7 -30 -43 -10 -43 -17 -55 -32 -55 -16 0 -19 -7 -19 -45 0
-44 -11 -58 -26 -33 -5 8 -12 -7 -19 -37 -9 -46 -12 -50 -40 -50 -25 0 -30 4
-33 28 -4 33 -19 36 -24 5 -3 -13 -8 3 -12 34 -8 55 -25 71 -27 25 -1 -12 -11
23 -23 78 -17 75 -24 94 -29 75 -9 -34 -14 -24 -35 61 -12 49 -23 74 -33 74
-9 0 -15 13 -17 33 -5 46 -22 30 -23 -21 0 -23 -4 -60 -8 -82 -8 -37 -9 -38
-11 -10 -4 55 -19 -41 -20 -135 -1 -47 -5 -105 -9 -130 -7 -43 -8 -44 -19 -20
l-11 25 0 -23 c-1 -20 -5 -23 -33 -20 l-31 3 2 75 c2 74 18 169 20 123 2 -36
21 -27 21 10 0 75 21 366 29 407 9 45 9 45 11 -25 2 -75 5 -72 15 18 5 46 10
57 24 57 14 0 21 -14 31 -60z m1075 -80 c21 -5 24 -8 10 -9 -31 -2 0 -17 55
-26 34 -6 40 -9 25 -15 -18 -6 -17 -8 10 -21 18 -8 31 -23 33 -37 2 -14 10
-22 23 -22 21 0 26 -17 32 -107 l3 -63 -218 0 c-170 0 -220 -3 -224 -13 -7
-21 12 -92 24 -90 7 2 18 -12 26 -31 13 -30 20 -35 68 -44 31 -6 42 -10 26
-11 -16 0 -28 -5 -28 -11 0 -13 120 -13 140 0 11 7 1 10 -35 11 l-50 2 50 7
c65 9 115 29 115 45 0 7 7 15 15 19 8 3 15 15 15 26 0 15 7 20 29 20 25 0 30
-5 35 -35 8 -42 2 -55 -25 -55 -12 0 -19 -7 -19 -20 0 -24 -33 -46 -83 -56
-24 -4 -34 -10 -27 -14 22 -14 -7 -21 -83 -22 -87 -1 -153 11 -122 22 17 6 14
8 -15 15 -42 9 -70 31 -70 57 0 12 -6 18 -17 16 -13 -2 -19 4 -21 22 -1 14 -5
41 -9 60 l-7 35 -6 -40 c-6 -38 -6 -37 -14 27 -5 38 -5 94 0 125 7 55 8 56 14
23 6 -33 7 -32 14 23 6 44 12 57 24 55 10 -2 18 7 22 22 3 14 19 31 36 40 17
8 29 20 27 26 -2 7 13 15 34 19 32 6 35 9 18 15 -17 7 -16 8 10 12 46 7 107 6
140 -2z m640 0 c17 -7 17 -9 3 -9 -10 -1 -18 -5 -18 -11 0 -5 20 -10 45 -10
38 0 45 -3 45 -19 0 -11 4 -22 9 -26 5 -3 13 -19 16 -36 5 -21 10 -27 15 -19
14 23 18 -6 25 -207 l8 -203 -37 0 -36 0 0 195 c0 123 -4 195 -10 195 -6 0
-11 -74 -12 -197 l-2 -198 -6 200 c-3 110 -11 214 -17 230 -10 26 -11 27 -12
8 -1 -28 -21 -31 -21 -3 0 26 -36 34 -108 24 -47 -8 -57 -12 -57 -29 0 -14 -8
-21 -26 -23 -36 -4 -39 -18 -45 -197 -7 -209 -11 -235 -35 -235 -10 0 -19 5
-19 10 0 6 7 10 15 10 8 0 15 5 15 10 0 6 -9 10 -20 10 -22 0 -22 -3 -24 342
l-1 158 33 0 c27 0 32 -4 32 -24 0 -14 5 -28 10 -31 6 -3 10 -1 10 4 0 6 9 11
20 11 13 0 20 7 20 20 0 17 7 20 43 20 37 1 40 2 22 12 -19 12 -18 13 10 19
43 9 87 9 110 -1z m474 -6 c2 -2 -9 -4 -25 -4 -22 0 -26 -3 -14 -10 8 -5 29
-10 46 -10 27 0 32 -4 38 -31 13 -65 10 -69 -40 -69 -48 0 -54 19 -6 21 28 1
28 1 -68 24 -34 8 -50 -5 -57 -48 -8 -49 14 -95 55 -112 17 -8 32 -21 32 -29
0 -11 13 -18 40 -22 34 -6 41 -11 51 -42 14 -42 7 -156 -11 -177 -7 -8 -31
-18 -54 -22 -40 -7 -41 -7 -11 -13 l30 -7 -42 -12 c-46 -13 -137 -3 -132 14 1
6 -10 12 -27 15 -25 4 -29 10 -32 44 l-3 38 38 -7 c21 -4 65 -7 98 -8 l60 -2
3 58 c2 44 0 59 -12 63 -9 3 -16 12 -16 20 0 8 -9 14 -19 14 -11 0 -22 4 -25
9 -3 5 -21 12 -41 15 -28 6 -34 11 -32 29 1 16 -4 23 -20 25 -22 3 -23 8 -23
82 0 43 5 82 10 85 6 3 10 1 10 -5 0 -6 5 -8 10 -5 6 3 10 17 10 31 0 20 5 24
31 24 23 0 30 4 26 14 -4 9 1 17 11 19 17 5 104 -2 111 -9z m1483 -66 c1 -24
1 -92 0 -153 -1 -60 2 -128 7 -150 6 -29 9 11 12 150 l2 190 7 -185 c4 -102
12 -197 18 -211 15 -37 56 -50 143 -47 74 3 74 3 91 38 17 32 18 33 19 10 0
-24 0 -25 9 -3 5 12 10 108 11 212 l1 191 35 0 36 0 -6 -202 c-3 -112 -11
-222 -17 -245 -11 -40 -15 -43 -56 -49 -34 -5 -44 -11 -44 -25 0 -13 -10 -19
-44 -24 -52 -8 -172 6 -168 19 2 5 -11 17 -29 25 -23 11 -35 26 -41 48 -5 21
-13 30 -22 27 -22 -8 -26 28 -26 234 l0 192 30 0 c28 0 30 -2 32 -42z m-4218
-174 c9 -3 16 -17 16 -29 0 -14 7 -25 18 -28 9 -3 -43 -5 -115 -6 l-133 -1 0
35 0 35 99 0 c55 0 106 -3 115 -6z m5875 0 c26 -6 31 -11 31 -35 l0 -29 -135
0 -135 0 0 28 c0 16 3 32 7 35 8 9 190 9 232 1z"/>
<path d="M6550 9454 c-19 -7 -27 -13 -17 -13 35 -2 6 -20 -41 -26 -26 -3 -64
-10 -85 -16 -36 -10 -38 -11 -20 -24 17 -13 16 -14 -9 -15 -14 0 -34 -3 -42
-6 -15 -6 -15 -8 1 -20 17 -12 16 -13 -10 -14 -45 0 -98 -26 -91 -44 4 -11 0
-16 -14 -16 -11 0 -39 -16 -61 -34 -23 -19 -57 -40 -76 -47 -31 -12 -45 -28
-59 -71 -3 -10 -14 -18 -25 -18 -12 0 -23 -10 -29 -29 -6 -16 -19 -32 -29 -35
-10 -3 -26 -20 -35 -36 -10 -17 -23 -29 -30 -28 -7 2 -14 -7 -16 -19 -2 -13
-10 -23 -18 -23 -8 0 -19 -12 -24 -26 -6 -14 -19 -28 -29 -31 -12 -3 -28 -26
-41 -59 -12 -30 -26 -52 -30 -49 -4 2 -17 -16 -30 -40 -13 -24 -26 -42 -31
-40 -4 3 -10 -4 -14 -15 -3 -11 -12 -20 -20 -20 -7 0 -23 -25 -35 -55 -12 -30
-29 -60 -37 -67 -8 -6 -22 -29 -30 -50 -8 -21 -21 -38 -29 -38 -7 0 -16 -11
-20 -25 -3 -14 -12 -25 -19 -25 -7 0 -21 -22 -31 -49 -10 -28 -21 -48 -25 -45
-10 6 -70 -112 -93 -184 -10 -29 -22 -52 -26 -52 -19 0 -57 -47 -74 -90 -10
-25 -23 -54 -30 -65 -7 -11 -20 -42 -30 -70 -10 -27 -25 -55 -33 -61 -15 -13
-33 -67 -33 -99 0 -17 2 -17 10 -5 5 8 10 11 10 7 0 -21 42 19 59 57 18 43 53
73 78 68 6 -1 13 8 15 20 2 17 10 23 31 23 19 1 27 -4 27 -16 0 -13 7 -17 28
-16 21 2 29 10 37 34 6 17 23 41 38 53 l27 21 0 -28 c0 -25 -17 -66 -54 -133
-23 -41 -40 -130 -27 -143 6 -6 12 -9 14 -6 37 52 58 92 67 127 6 23 15 42 21
42 5 0 14 11 19 25 6 15 15 23 23 19 9 -3 18 8 26 36 8 28 17 40 31 40 14 0
20 10 25 41 4 23 16 50 26 60 10 10 19 23 19 28 0 4 13 25 29 45 16 20 35 59
42 86 8 31 16 45 20 38 5 -8 15 4 29 35 12 26 25 47 30 47 5 0 17 25 26 55 10
30 23 55 31 55 7 0 15 11 19 25 4 15 13 25 24 25 12 0 22 12 30 36 8 24 17 34
26 30 8 -3 14 1 14 9 0 27 42 127 49 116 4 -6 16 12 26 39 13 32 25 50 36 50
9 0 20 8 23 17 6 15 8 15 16 3 8 -12 10 -10 10 7 0 34 31 105 56 129 12 12 25
35 29 53 4 18 16 37 27 44 11 7 26 27 33 45 8 17 21 32 29 32 9 0 16 6 16 14
0 8 9 21 19 28 10 7 26 30 34 51 9 20 23 40 31 43 8 3 19 18 26 34 8 18 25 34
50 44 22 9 40 23 43 36 3 12 14 24 24 26 10 3 26 25 37 50 12 30 24 44 37 44
18 0 39 27 39 49 0 14 -46 12 -90 -5z"/>
<path d="M3995 7233 c-151 -9 -193 -23 -117 -39 l37 -7 -60 -9 c-78 -10 -85
-13 -85 -38 0 -13 -7 -20 -19 -20 -21 0 -31 -38 -23 -90 3 -24 9 -30 28 -30
17 0 24 -6 24 -20 0 -11 6 -23 14 -26 8 -3 12 -12 10 -19 -8 -21 70 -30 251
-29 170 1 316 21 245 34 -33 6 -32 7 23 14 31 5 57 13 57 18 0 6 -9 8 -20 5
-41 -11 -18 11 28 25 l47 15 0 74 0 73 -45 9 c-55 11 -76 27 -35 27 19 0 26 3
19 10 -20 20 -227 33 -379 23z"/>
<path d="M6078 6223 c-2 -32 -6 -37 -23 -34 -35 7 -229 8 -275 2 -48 -7 -144
4 -172 19 -11 6 -19 6 -23 0 -10 -15 24 -57 59 -74 18 -9 39 -22 46 -31 7 -8
20 -15 29 -15 31 0 88 -25 84 -37 -3 -7 14 -15 44 -20 63 -11 344 -10 408 0
l50 9 -30 13 -30 13 27 1 c14 1 49 6 77 13 43 10 51 15 51 35 0 19 -5 23 -29
23 -16 0 -38 3 -48 7 -16 6 -15 8 7 14 24 7 23 7 -6 8 -41 1 -116 28 -129 45
-12 15 -79 46 -101 46 -8 0 -14 -15 -16 -37z"/>
<path d="M11845 9470 l-250 -5 2 -35 c7 -117 4 -174 -12 -247 -11 -50 -23 -83
-30 -83 -7 0 -15 -10 -19 -22 -4 -17 -8 -20 -14 -10 -6 8 -15 -8 -27 -49 -10
-34 -26 -71 -35 -83 -9 -11 -24 -42 -34 -69 -10 -26 -21 -45 -26 -42 -5 3 -14
-20 -21 -51 -9 -38 -19 -58 -30 -61 -18 -5 -42 -49 -34 -63 7 -11 46 -1 67 17
12 11 21 12 37 4 22 -12 341 -15 341 -3 0 4 -25 5 -55 4 -33 -2 -65 2 -82 10
-19 10 -39 12 -58 6 -18 -4 -32 -3 -36 3 -4 7 -8 8 -10 1 -2 -5 -23 -13 -45
-16 l-41 -7 -11 41 c-9 36 -8 43 10 59 10 10 33 22 50 25 51 10 268 7 268 -4
0 -5 5 -10 11 -10 7 0 18 -8 25 -17 12 -16 14 -15 24 15 7 17 18 32 25 32 7 0
18 19 24 43 6 24 20 55 31 69 11 14 29 47 40 72 10 25 24 46 30 46 6 0 15 12
20 26 6 14 14 23 19 20 5 -3 14 14 21 39 7 24 28 68 46 97 19 29 37 60 40 70
3 10 9 18 14 18 5 0 16 21 24 48 l15 47 1 -35 c1 -32 3 -30 22 28 25 74 19 83
-47 79 -22 -1 -152 -4 -290 -7z"/>
<path d="M13399 9446 c22 -12 17 -14 -55 -19 -44 -4 -140 -9 -214 -12 -74 -3
-151 -8 -170 -11 l-35 -6 30 -13 30 -13 -32 -7 c-18 -4 -33 -14 -33 -21 0 -7
-7 -34 -16 -60 -17 -51 -13 -65 11 -40 9 9 23 16 31 16 8 0 14 3 14 8 0 4 28
20 63 36 34 16 66 35 70 43 4 7 25 13 45 13 20 1 66 8 102 16 103 25 129 27
145 14 10 -9 15 -9 15 -1 0 6 9 11 19 11 19 0 31 18 31 46 0 10 -12 14 -37 14
-37 -1 -37 -1 -14 -14z"/>
<path d="M16566 9451 c-4 -6 -2 -11 4 -11 6 0 8 -4 5 -10 -3 -5 -36 -10 -73
-10 -37 0 -136 -5 -219 -12 -149 -11 -153 -12 -153 -34 0 -13 -11 -35 -24 -49
-14 -14 -32 -48 -42 -76 -10 -27 -23 -49 -30 -49 -6 0 -15 -12 -19 -27 -6 -23
-8 -25 -14 -10 -5 12 -13 -4 -26 -53 -11 -40 -27 -76 -35 -80 -9 -5 -22 -31
-29 -59 -7 -30 -21 -56 -31 -61 -19 -10 -43 -77 -56 -155 -6 -36 -8 -38 -14
-15 l-6 25 -8 -23 c-4 -12 -11 -20 -16 -17 -7 4 -30 -45 -30 -64 0 -4 18 -5
40 -3 22 2 40 8 40 13 0 5 -5 9 -12 9 -6 0 -4 8 6 19 9 10 19 34 23 54 4 27
11 37 32 43 33 9 33 9 53 18 9 4 23 4 30 -1 7 -4 22 -8 33 -9 104 -7 133 -7
150 -1 16 5 25 0 40 -26 11 -17 19 -35 17 -39 -1 -5 4 -8 11 -8 6 0 20 17 30
38 42 87 65 123 73 111 4 -7 12 8 20 38 7 28 35 84 62 125 27 40 55 90 62 111
8 26 17 37 26 33 9 -3 16 4 20 20 3 13 15 30 25 37 10 7 27 39 39 70 12 31 25
57 30 57 5 0 14 16 20 36 8 24 15 32 20 24 6 -9 9 -9 15 0 10 16 2 21 -43 27
-24 3 -42 1 -46 -6z"/>
<path d="M11045 9286 c-15 -14 -50 -30 -82 -37 -38 -9 -57 -18 -60 -30 -3 -10
-20 -23 -39 -29 -23 -8 -34 -18 -34 -31 0 -11 -9 -21 -24 -25 -13 -3 -26 -14
-29 -24 -3 -10 -15 -20 -28 -22 -15 -2 -25 -11 -27 -24 -2 -13 -14 -23 -35
-30 -21 -6 -34 -17 -38 -34 l-7 -25 -1 25 c-2 23 -4 21 -23 -15 -12 -22 -21
-44 -20 -48 2 -5 -7 -11 -18 -14 -11 -3 -20 -14 -20 -24 0 -13 -7 -19 -24 -19
-21 0 -33 -13 -41 -42 -2 -5 -4 -11 -5 -15 -1 -5 -5 3 -9 17 -6 20 -10 10 -25
-53 -14 -60 -22 -77 -36 -77 -19 0 -30 -36 -30 -96 0 -45 14 -43 48 6 23 33
33 39 63 40 40 0 59 -14 59 -47 0 -19 25 -43 44 -43 3 0 6 15 6 33 0 65 12
107 29 105 17 -3 38 66 40 130 1 25 5 32 21 32 13 0 20 7 20 20 0 11 7 23 15
26 8 3 24 26 36 50 12 24 26 41 30 38 5 -2 15 8 23 24 25 49 131 150 175 168
22 9 39 20 36 24 -3 4 11 18 31 29 22 13 34 27 32 38 -5 26 -24 26 -53 -1z"/>
<path d="M10588 8494 c-1 -5 -2 -34 -2 -64 -1 -54 -2 -55 -28 -52 -26 2 -36
-10 -44 -56 -4 -24 -12 -24 -19 -2 -4 12 -12 19 -20 16 -7 -2 -21 4 -30 14
-10 11 -21 17 -25 15 -4 -3 -10 4 -13 15 -3 12 1 24 11 30 15 8 14 9 -3 10
-28 0 -48 -56 -39 -106 5 -28 14 -39 39 -49 17 -8 37 -20 43 -28 15 -18 79
-29 119 -21 l28 6 -2 135 c-3 118 -8 169 -15 137z"/>
<path d="M14119 8276 c-4 -4 -19 -8 -35 -9 -23 -2 -29 -7 -29 -27 0 -17 -9
-29 -27 -38 -16 -7 -28 -18 -28 -24 0 -5 -6 -8 -14 -5 -17 7 -36 -11 -36 -33
0 -9 -5 -21 -12 -28 -6 -6 -13 -17 -15 -24 -1 -7 -7 -35 -14 -61 -13 -56 -7
-77 21 -77 17 0 20 -6 20 -39 0 -48 -8 -71 -25 -71 -6 0 -20 -18 -30 -40 -10
-22 -24 -40 -31 -40 -7 0 -19 -18 -25 -41 -7 -23 -23 -48 -36 -56 -13 -8 -23
-24 -23 -35 0 -11 -8 -22 -20 -25 -11 -3 -24 -20 -31 -42 -6 -20 -18 -42 -27
-49 -9 -6 -26 -35 -37 -63 -12 -28 -25 -49 -30 -47 -8 3 -20 -14 -29 -44 -3
-10 -15 -18 -26 -18 -15 0 -20 -7 -20 -25 0 -18 -5 -25 -20 -25 -11 0 -20 -6
-20 -14 0 -26 -21 -71 -28 -60 -4 6 -15 13 -24 17 -9 3 -15 14 -13 24 2 10 4
22 4 26 1 4 8 7 17 5 13 -2 21 13 35 65 19 67 55 131 69 122 6 -4 26 41 46
105 4 12 7 12 13 1 6 -9 14 2 25 36 9 27 25 56 36 65 18 16 44 87 42 119 0 9
-15 30 -32 47 -42 42 -79 43 -102 2 -10 -17 -21 -30 -25 -29 -23 4 -34 -3 -31
-18 2 -13 -3 -17 -18 -16 -18 2 -24 -6 -33 -43 -9 -33 -16 -44 -26 -40 -10 3
-17 -6 -25 -32 -5 -20 -10 -43 -10 -49 0 -12 -13 -17 -32 -14 -5 0 -8 -11 -8
-25 0 -17 -6 -28 -20 -31 -13 -4 -24 -19 -31 -47 -6 -22 -13 -47 -15 -53 -2
-7 -10 -10 -17 -7 -18 7 -23 -7 -32 -90 -5 -43 -11 -65 -19 -63 -6 2 -10 15
-9 28 2 20 1 21 -7 7 -24 -40 -39 -323 -21 -387 4 -17 20 -29 48 -39 37 -14
48 -14 116 2 49 12 74 22 73 31 0 8 4 13 9 12 5 -1 9 -5 8 -9 -2 -5 -1 -8 3
-8 3 0 12 16 20 35 12 29 21 36 53 41 31 5 41 12 52 38 8 17 20 30 27 28 13
-2 27 24 36 71 4 17 13 27 25 27 12 0 21 11 27 33 6 17 16 32 24 32 8 0 17 11
20 25 3 15 14 26 29 30 14 3 25 14 27 26 6 41 24 74 38 74 9 0 19 16 26 43 16
62 18 67 30 67 6 0 8 -10 4 -25 -3 -14 -4 -25 0 -25 3 0 10 17 15 38 5 20 15
56 21 79 6 27 18 44 30 48 11 3 19 11 17 17 -2 8 6 15 42 35 2 1 9 26 17 55
l12 53 2 -45 c1 -43 3 -41 28 48 18 64 29 87 34 75 6 -16 7 -15 7 3 1 25 31
56 31 33 1 -31 21 24 32 84 14 81 27 105 29 52 1 -39 1 -39 9 -11 15 50 24
242 12 250 -16 10 -136 19 -143 12z"/>
<path d="M16281 8193 c-10 -4 -5 -10 15 -19 27 -12 25 -12 -38 -13 -61 -1 -67
-3 -70 -23 -2 -14 -12 -24 -28 -28 -16 -4 -26 -14 -28 -28 -3 -20 -13 -27 -36
-23 -14 3 -37 -22 -32 -35 6 -17 -14 -32 -52 -40 -26 -5 -32 -13 -41 -50 -9
-33 -16 -44 -31 -44 -20 0 -34 -16 -35 -40 0 -8 -7 -15 -15 -15 -25 -1 -37
-13 -44 -45 -4 -22 -11 -30 -23 -28 -12 2 -19 -4 -21 -19 -2 -14 -10 -23 -21
-23 -10 0 -20 -12 -26 -32 -6 -20 -17 -33 -27 -33 -9 0 -20 -4 -24 -8 -4 -4 3
-7 15 -7 12 0 19 -4 16 -10 -3 -5 -15 -10 -25 -10 -14 0 -21 -10 -26 -35 -7
-42 -24 -46 -25 -7 -1 24 -2 23 -9 -8 -17 -80 -36 -113 -68 -124 -36 -13 -54
-27 -23 -19 15 4 21 1 21 -11 0 -12 -7 -16 -22 -14 -17 2 -23 -4 -30 -29 -6
-22 -15 -33 -27 -33 -14 0 -21 -10 -25 -37 -11 -63 -17 -73 -37 -73 -13 0 -19
-7 -19 -24 0 -13 -9 -30 -20 -37 -40 -29 -66 -287 -32 -321 6 -6 8 -17 5 -24
-3 -9 6 -18 23 -25 37 -14 210 -7 226 9 9 9 2 12 -33 13 l-44 1 40 9 c100 24
114 29 108 44 -6 16 50 45 87 45 14 0 20 6 18 17 -2 10 5 19 20 22 13 3 22 8
21 11 -6 13 24 51 36 46 7 -2 19 2 25 10 10 11 10 14 0 14 -9 0 -7 7 5 20 10
11 26 20 37 20 10 0 18 7 18 18 0 9 9 35 19 57 17 36 20 37 21 15 1 -20 4 -17
14 15 8 27 17 40 30 40 11 0 23 13 32 34 9 22 19 31 29 28 10 -4 17 5 25 31 5
20 10 43 10 50 0 6 7 12 15 12 13 0 14 -4 4 -21 -8 -17 -8 -20 2 -17 7 2 19
28 27 56 11 38 19 52 33 52 12 0 19 9 21 28 2 18 8 27 20 26 13 -1 20 12 28
55 6 31 15 67 20 81 l8 25 1 -27 c2 -59 20 -24 26 50 4 42 11 104 16 137 11
77 12 272 0 279 -5 3 -12 26 -15 51 -6 38 -11 45 -29 44 -12 0 -28 -3 -36 -6z
m-205 -572 c-3 -9 -10 -35 -17 -58 -7 -26 -18 -44 -28 -45 -9 0 -22 -2 -30 -2
-7 -1 -22 -28 -33 -64 -12 -40 -24 -62 -34 -62 -8 0 -20 -13 -25 -30 -8 -20
-18 -30 -32 -31 -20 0 -20 -1 -3 -8 17 -7 16 -9 -11 -27 -44 -28 -95 -75 -116
-107 -9 -15 -24 -27 -32 -27 -7 0 -17 -9 -20 -20 -3 -11 -14 -20 -24 -20 -9 0
-25 -15 -34 -32 l-17 -33 5 40 c8 57 25 106 35 100 4 -2 17 17 29 44 15 36 27
51 43 53 15 2 24 11 26 26 2 14 10 22 23 22 13 0 19 7 19 21 0 12 8 23 19 26
12 3 22 21 31 59 10 40 18 54 31 54 42 0 69 23 82 69 9 31 18 46 30 46 9 0 24
8 33 16 20 21 56 13 50 -10z"/>
<path d="M22885 8275 c-5 -1 -42 -9 -82 -15 -40 -7 -70 -17 -67 -22 3 -5 13
-7 21 -4 8 3 20 3 26 -1 7 -4 -24 -14 -68 -23 -65 -12 -80 -18 -79 -32 1 -10
-2 -18 -7 -18 -5 0 -9 -9 -9 -20 0 -12 -7 -20 -17 -20 -23 0 -53 -29 -47 -45
4 -10 -8 -16 -40 -20 -39 -6 -45 -11 -48 -33 -2 -18 -10 -28 -28 -32 -16 -4
-26 -14 -28 -28 -2 -15 -10 -22 -25 -22 -17 0 -25 -9 -35 -40 -6 -22 -12 -47
-12 -56 0 -10 -5 -14 -15 -11 -8 4 -17 2 -20 -4 -4 -5 -14 -8 -23 -7 -10 2
-18 -5 -20 -17 -3 -16 -1 -18 9 -7 17 16 29 15 29 -2 0 -8 -10 -16 -22 -18
-19 -2 -25 -12 -32 -50 -5 -28 -14 -48 -21 -48 -9 0 -11 8 -7 22 3 13 1 19 -5
15 -6 -4 -14 -24 -17 -44 -12 -64 -15 -71 -35 -66 -16 4 -21 -5 -31 -67 -9
-54 -17 -74 -30 -77 -10 -3 -22 -19 -28 -36 l-10 -32 -2 30 -1 30 -10 -25 c-6
-14 -19 -65 -29 -115 -10 -49 -18 -77 -19 -60 -2 64 -21 5 -30 -95 -9 -104 -7
-124 24 -290 l14 -75 -3 62 c-2 56 -1 61 13 49 9 -8 27 -16 41 -19 23 -4 23
-4 3 -6 -13 0 -23 -5 -23 -10 0 -10 50 -21 99 -21 l36 0 -24 19 -25 19 38 16
c21 9 47 16 57 16 12 0 23 11 29 26 6 14 14 23 18 20 4 -2 14 -1 22 5 12 7 9
9 -10 10 -22 1 -23 2 -5 8 57 21 84 33 84 39 -3 22 3 32 22 32 14 0 24 10 32
30 6 17 19 30 27 30 11 0 21 16 30 49 12 44 17 50 47 56 19 3 36 13 39 23 3 9
10 25 15 34 5 10 9 25 9 33 0 8 5 15 11 15 6 0 9 -6 6 -14 -3 -8 -3 -17 1 -21
3 -3 16 29 27 72 19 76 21 78 56 87 34 8 37 12 49 65 18 83 22 90 30 61 6 -24
7 -24 17 10 6 19 14 47 17 62 4 19 11 25 24 21 17 -4 21 5 31 71 7 42 17 76
22 76 5 0 8 -8 6 -17 -4 -31 18 -28 23 3 3 16 11 29 19 29 15 0 40 78 41 123
0 12 5 22 10 22 6 0 10 -10 10 -22 1 -19 2 -20 10 -7 12 20 30 168 30 246 0
51 -3 64 -19 73 -18 9 -92 13 -116 5z"/>
<path d="M18455 8255 c-33 -8 -42 -13 -25 -14 14 -1 32 -6 40 -11 11 -7 7 -10
-20 -11 -19 -1 -39 -3 -45 -4 -5 -1 -29 -6 -52 -10 -32 -6 -43 -12 -43 -26 0
-10 -4 -20 -10 -24 -5 -3 -7 -12 -4 -19 3 -9 -9 -16 -38 -22 -34 -7 -44 -14
-46 -31 -2 -16 -13 -25 -35 -31 -24 -6 -32 -14 -32 -33 0 -17 -6 -24 -20 -24
-29 -1 -45 -13 -45 -36 0 -12 -7 -19 -19 -19 -13 0 -21 -8 -23 -22 -2 -15 -9
-22 -20 -20 -12 2 -20 -7 -26 -30 -6 -23 -15 -34 -30 -36 -16 -3 -24 -14 -32
-45 -18 -69 -22 -75 -30 -47 -5 16 -8 19 -9 8 -2 -36 -34 -99 -47 -94 -9 3
-15 -9 -20 -40 -7 -51 -24 -69 -24 -27 0 46 -17 8 -31 -69 -9 -52 -16 -68 -28
-66 -11 2 -20 -14 -32 -60 -16 -62 -29 -88 -29 -61 -1 34 -20 -18 -21 -56 0
-22 -4 -49 -9 -60 -8 -19 -9 -19 -9 3 -2 46 -18 20 -25 -39 -14 -135 -4 -271
19 -263 7 3 15 -2 18 -10 4 -9 17 -16 29 -17 23 0 23 0 -2 -11 -25 -11 -24
-11 15 -20 28 -7 57 -5 95 3 l55 13 -35 6 -35 6 40 8 c67 13 108 38 118 72 7
24 17 33 53 43 24 7 47 18 50 23 4 6 -2 8 -15 3 -15 -4 -21 -2 -21 8 0 9 14
17 36 21 31 6 39 14 59 59 19 41 24 47 24 27 l1 -25 14 26 c7 14 16 38 20 53
5 20 12 27 24 24 14 -4 21 7 35 53 10 35 23 59 31 59 8 0 17 11 20 25 8 31 26
24 20 -8 -2 -12 6 6 18 41 17 47 26 61 38 57 13 -4 20 11 37 72 16 58 21 70
22 46 1 -45 21 -42 21 2 0 28 4 35 16 33 18 -3 44 64 44 115 0 15 5 27 10 27
6 0 10 -7 10 -15 0 -37 18 -9 30 45 13 62 18 68 37 49 8 -8 15 4 24 45 14 63
28 82 30 39 l1 -28 8 30 c4 17 8 48 9 70 2 38 3 39 13 15 l10 -25 9 29 c12 42
23 210 15 240 -6 26 -8 26 -94 25 -48 0 -109 -7 -137 -14z"/>
<path d="M20857 7222 c-10 -10 -17 -23 -17 -29 0 -20 -28 -34 -74 -37 -26 -1
-52 -8 -58 -14 -7 -7 -33 -12 -60 -12 -38 0 -46 3 -42 15 4 10 0 15 -12 15
-11 0 -36 3 -56 6 -36 6 -38 5 -38 -19 0 -14 -4 -29 -10 -32 -5 -3 -10 2 -10
12 -1 35 -18 -10 -29 -77 -20 -116 -20 -115 -35 -94 -12 16 -15 11 -21 -49 -4
-37 -5 -81 -1 -97 5 -26 3 -30 -16 -30 -27 0 -21 -5 16 -14 23 -6 27 -4 23 8
-6 14 15 16 168 16 166 0 275 12 275 30 0 5 -6 11 -12 13 -7 3 5 6 27 7 35 1
38 2 23 14 -10 7 -18 18 -18 25 0 6 8 11 18 12 9 1 0 5 -20 11 -34 9 -37 13
-43 59 -6 45 -2 111 11 182 4 19 11 27 20 23 11 -4 14 4 14 34 0 46 -1 47 -23
22z"/>
<path d="M19354 7123 c-7 -39 -13 -49 -32 -51 -13 -2 -27 -14 -32 -27 -5 -13
-18 -26 -29 -30 -12 -4 -21 -15 -21 -27 0 -12 -8 -22 -21 -25 -11 -3 -24 -16
-29 -29 -5 -12 -19 -24 -32 -26 -15 -2 -23 -10 -23 -23 0 -23 -23 -33 -77 -34
-37 -1 -38 -2 -38 -38 l0 -36 107 6 c58 4 184 7 280 7 145 0 173 2 173 15 0 8
9 22 19 32 11 10 26 43 34 74 8 31 24 66 36 78 11 11 21 31 22 44 0 21 1 21 9
2 7 -19 8 -19 18 5 22 59 24 70 8 70 -9 0 -16 -4 -16 -10 0 -5 -7 -7 -15 -4
-8 4 -15 1 -15 -5 0 -6 -9 -11 -19 -11 -11 0 -29 -11 -39 -25 -11 -14 -23 -21
-27 -16 -3 6 -15 7 -28 2 -14 -6 -31 -4 -48 5 -15 7 -44 15 -65 17 -30 3 -43
11 -57 33 -10 17 -15 39 -12 52 4 14 1 22 -8 22 -8 0 -17 -19 -23 -47z"/>
<path d="M18624 7030 c-12 -12 -151 -30 -244 -30 -56 -1 -63 -2 -47 -14 16
-12 15 -14 -14 -20 -46 -9 -99 -7 -99 3 0 9 -22 20 -45 22 -5 0 -15 5 -21 10
-8 6 -14 4 -18 -7 -5 -13 -9 -14 -21 -4 -20 16 -24 12 -27 -30 -2 -27 2 -37
18 -44 11 -5 28 -22 36 -37 9 -15 27 -29 40 -31 16 -2 24 -10 26 -29 3 -26 5
-27 93 -34 93 -7 195 -2 312 16 59 10 67 13 67 32 0 40 -11 66 -26 60 -10 -4
-14 12 -16 72 -2 54 -6 73 -14 65z"/>
<path d="M17531 6948 c-2 -34 -36 -88 -55 -88 -10 0 -61 7 -113 16 -83 14 -97
14 -109 2 -13 -13 -10 -16 25 -28 28 -9 41 -19 43 -34 3 -20 9 -21 146 -24
135 -2 142 -2 142 17 0 32 -11 51 -30 51 -18 0 -35 33 -43 80 -2 14 -5 17 -6
8z"/>
<path d="M7785 8310 c-3 -5 2 -10 12 -10 29 -1 -5 -16 -52 -24 -95 -16 -135
-29 -124 -42 8 -10 3 -15 -23 -21 -19 -5 -37 -18 -43 -31 -5 -12 -13 -22 -17
-22 -5 0 -8 -7 -8 -15 0 -8 -8 -15 -18 -15 -41 0 -109 -31 -120 -55 -7 -14
-18 -25 -27 -25 -8 0 -25 -11 -37 -25 -11 -13 -36 -29 -55 -36 -18 -6 -33 -15
-33 -20 0 -5 -29 -38 -64 -73 -35 -36 -67 -75 -71 -88 -9 -28 -23 -38 -51 -38
-12 0 -24 -8 -27 -17 -3 -10 -10 -32 -15 -49 -10 -30 -9 -31 19 -29 33 3 62
26 87 67 9 16 24 31 34 34 9 3 27 23 40 45 23 41 33 47 41 27 4 -10 6 -10 6 0
1 6 6 12 12 12 5 0 7 -4 4 -10 -3 -5 1 -10 9 -10 8 0 20 8 25 18 10 16 10 15
11 -3 l1 -20 9 20 c5 11 9 29 9 40 l0 20 -9 -20 c-8 -18 -9 -17 -9 8 -1 24 2
26 17 18 16 -9 18 -17 12 -56 -4 -25 -3 -45 2 -45 4 0 8 -21 8 -46 0 -55 11
-51 45 17 14 27 29 49 34 49 4 0 16 19 27 42 11 24 64 88 124 149 58 59 119
123 136 141 17 18 49 40 72 47 23 8 42 20 42 26 0 7 21 18 48 25 70 18 72 19
72 28 0 19 -144 30 -155 12z"/>
<path d="M8015 8271 c-66 -15 -80 -21 -80 -37 0 -14 -10 -20 -44 -26 -53 -9
-59 -14 -64 -53 -3 -24 -9 -31 -31 -33 -21 -3 -31 -12 -39 -33 -9 -21 -20 -31
-44 -35 -32 -6 -53 -27 -50 -49 1 -5 -10 -11 -25 -13 -19 -2 -28 -9 -28 -22 0
-10 -6 -32 -14 -50 -12 -29 -15 -31 -23 -15 -8 14 -12 9 -22 -28 -12 -40 -17
-46 -50 -53 -22 -4 -29 -9 -18 -11 25 -6 21 -31 -5 -35 -18 -2 -26 -14 -37
-55 -12 -47 -31 -72 -31 -41 0 25 -11 -2 -29 -73 -18 -68 -20 -71 -21 -34 -2
45 -5 39 -35 -67 -8 -32 -21 -57 -27 -55 -6 1 -15 -13 -18 -31 -10 -42 -20
-53 -20 -21 -1 45 -17 -2 -30 -86 -7 -44 -16 -91 -20 -105 -7 -21 -9 -17 -10
20 0 37 -3 42 -11 27 -13 -23 -24 -240 -15 -290 7 -39 22 -49 28 -19 3 12 9 6
21 -22 l17 -39 68 6 c99 9 140 23 144 50 2 18 11 23 48 28 l45 6 -45 2 c-33 1
-41 4 -30 11 8 5 25 10 38 10 12 0 30 4 40 9 9 5 24 12 33 14 9 3 22 26 30 51
8 28 19 45 27 43 8 -1 20 16 29 43 18 54 33 73 33 42 0 -12 5 -22 10 -22 6 0
10 11 10 25 0 18 5 25 20 25 15 0 22 9 27 30 3 17 9 33 14 36 4 2 6 11 2 19
-3 8 0 15 6 15 6 0 11 -10 12 -22 0 -25 37 75 38 104 1 9 6 20 13 24 8 5 9 0
6 -14 -4 -15 -2 -22 8 -22 8 0 14 10 14 25 0 18 5 25 20 25 12 0 20 7 20 18 0
9 9 42 20 72 l19 55 1 -40 c2 -44 5 -39 31 58 9 31 19 47 30 47 11 0 21 18 32
60 12 43 21 58 31 54 10 -4 16 3 18 23 2 19 8 27 18 26 12 -2 19 13 29 57 14
62 27 77 33 38 7 -42 39 124 45 230 5 89 4 105 -12 122 -23 25 -85 25 -200 1z"/>
<path d="M8620 8255 c-132 -9 -161 -12 -103 -13 107 -2 121 -22 16 -23 -43 0
-100 -4 -128 -7 l-50 -7 3 -60 c1 -33 -2 -67 -8 -75 -7 -11 -10 7 -12 65 -1
62 -2 68 -5 25 -5 -95 -25 -220 -34 -220 -5 0 -9 8 -10 18 -1 9 -11 -13 -23
-49 -12 -37 -26 -64 -33 -62 -11 4 -48 -89 -41 -106 5 -14 56 32 60 54 4 27
29 55 50 55 12 0 18 10 20 38 2 21 8 36 14 35 7 -1 19 23 28 55 17 59 40 90
51 71 4 -5 16 -7 27 -3 17 5 19 2 16 -23 l-3 -28 78 0 c42 0 77 -3 77 -7 0 -4
7 -5 15 -2 9 4 18 -1 22 -12 4 -10 2 -19 -5 -22 -7 -2 -12 -25 -12 -60 l1 -57
15 35 c18 39 30 70 35 85 1 6 13 18 26 28 13 10 33 41 44 68 12 27 25 49 29
49 5 0 14 17 20 38 20 66 32 92 40 87 4 -3 10 4 13 14 3 12 16 21 33 24 53 8
-80 4 -266 -8z"/>
<path d="M22495 6083 c-45 -10 -48 -12 -35 -28 10 -13 7 -16 -19 -21 -21 -4
-31 -12 -31 -25 0 -10 -4 -21 -10 -24 -5 -3 -10 -16 -11 -28 -1 -20 -2 -20 -8
3 -13 44 -24 -77 -13 -145 l10 -60 2 60 2 60 15 -78 c11 -55 20 -80 32 -83 9
-3 24 -10 33 -15 23 -12 175 -12 182 0 3 5 21 12 40 15 31 6 35 11 46 56 12
49 23 62 33 38 3 -7 5 28 5 77 -1 50 -3 75 -5 58 -6 -49 -19 -40 -26 17 -8 65
-10 67 -57 75 -40 7 -56 25 -22 25 9 1 2 7 -17 15 -31 14 -102 18 -146 8z"/>
<path d="M19004 6083 c-14 -3 -24 -14 -28 -34 -4 -23 -11 -29 -31 -29 -23 0
-25 -4 -25 -45 l0 -45 180 0 180 0 0 44 c0 43 0 43 -42 52 -32 7 -43 14 -43
28 0 10 -9 23 -20 27 -21 8 -134 9 -171 2z"/>
</g>
</svg>
