<?xml version="1.0"?>
<svg xmlns="http://www.w3.org/2000/svg" viewBox="0 0 32 32">
    <defs>
        <style>
            .cls-1{fill:none;stroke:#FFF;stroke-linecap:round;stroke-linejoin:round;stroke-width:2px;}</style>
    </defs>
    <g id="Layer_6" data-name="Layer 6">
        <circle class="cls-1" cx="12" cy="11" r="3" />
        <path class="cls-1"
            d="M17,22.74a10.43,10.43,0,0,1-9.94,0H7a2,2,0,0,1,0-3.48,10.43,10.43,0,0,1,9.94,0,2,2,0,0,1,0,3.48Z" />
        <path class="cls-1" d="M18.5,8.4a3,3,0,1,1,0,5.2" />
        <path class="cls-1"
            d="M21.23,23.93A10.32,10.32,0,0,0,25,22.74h0a2,2,0,0,0,0-3.48,10.32,10.32,0,0,0-3.74-1.19" />
    </g>
</svg>